<svg width="361" height="292" viewBox="0 0 361 292" fill="none" xmlns="http://www.w3.org/2000/svg">
<g clip-path="url(#clip0_3718_12702)">
<path d="M360.049 259.48H0V259.66H360.049V259.48Z" fill="#EBEBEB"/>
<path d="M323.973 271.074H300.123V271.254H323.973V271.074Z" fill="#EBEBEB"/>
<path d="M196.745 268.812H187.463V268.993H196.745V268.812Z" fill="#EBEBEB"/>
<path d="M251.796 269.576H232.253V269.756H251.796V269.576Z" fill="#EBEBEB"/>
<path d="M299.403 264.384H258.998V264.564H299.403V264.384Z" fill="#EBEBEB"/>
<path d="M56.8806 272.716H37.7764V272.896H56.8806V272.716Z" fill="#EBEBEB"/>
<path d="M79.8513 272.716H63.2891V272.896H79.8513V272.716Z" fill="#EBEBEB"/>
<path d="M138.122 268.727H94.333V268.907H138.122V268.727Z" fill="#EBEBEB"/>
<path d="M336.329 123.936C338.669 115.813 338.244 107.546 335.616 100.144C337.668 97.2058 339.288 93.8861 340.34 90.2496C345.164 73.5289 336.372 56.1169 320.508 49.8449C317.448 27.9395 301.901 8.79924 279.282 2.27515C261.402 -2.88076 243.061 0.993373 229.113 11.1972C225.621 7.54627 221.156 4.73069 215.957 3.23288C200.273 -1.28934 183.891 7.7551 179.369 23.4388C178.613 26.06 178.245 28.7028 178.217 31.3095C162.432 34.4924 148.916 46.122 144.149 62.6626C139.864 77.5183 143.659 92.7916 152.927 103.787C151.731 105.955 150.745 108.281 150.032 110.758C144.898 128.566 155.166 147.159 172.974 152.293C178.843 153.986 184.798 153.993 190.329 152.625C196.874 161.647 206.358 168.647 217.894 171.974C232.75 176.258 247.951 173.594 260.049 165.918C265.464 178.512 269.914 197.407 260.337 215.936C295.146 212.522 320.292 179.131 315.165 148.534C325.095 143.962 333.059 135.27 336.329 123.936Z" fill="#EBEBEB"/>
<path d="M269.547 209.022C269.36 209.022 269.172 208.95 269.036 208.814C268.848 208.626 268.776 208.36 268.848 208.101C273.752 191.02 269.28 174.645 264.672 163.915L262.331 158.479L257.334 161.647C249.794 166.436 241.117 168.963 232.253 168.963C227.882 168.963 223.518 168.344 219.277 167.12C209.174 164.203 200.569 158.162 194.39 149.65L192.395 146.899L189.097 147.72C184.258 148.923 179.167 148.829 174.35 147.44C167.034 145.33 160.978 140.498 157.291 133.83C153.611 127.162 152.747 119.464 154.857 112.14C155.447 110.095 156.275 108.101 157.319 106.214L158.997 103.175L156.758 100.525C148.217 90.3933 145.301 76.7547 148.966 64.0449C153.071 49.823 164.65 39.1655 179.189 36.2347L183.185 35.4282L183.229 31.3524C183.25 29.1345 183.574 26.9382 184.186 24.8211C187.218 14.4013 196.903 7.10672 207.748 7.10672C210.038 7.10672 212.328 7.43077 214.553 8.07165C218.708 9.27422 222.481 11.5569 225.462 14.675L228.516 17.8722L232.08 15.2654C241.103 8.66934 252.171 5.04004 263.26 5.04004C268.186 5.04004 273.104 5.73853 277.886 7.12112C297.868 12.8819 312.637 29.9266 315.518 50.5431L315.921 53.4523L318.658 54.5324C332.339 59.9404 339.584 74.6952 335.501 88.8523C334.629 91.8623 333.283 94.6851 331.49 97.2559L330.006 99.3802L330.87 101.828C333.254 108.533 333.463 115.698 331.49 122.539C328.753 132.015 322.035 139.821 313.055 143.954L309.555 145.567L310.189 149.369C312.378 162.425 308.447 176.683 299.402 188.492C291.87 198.329 281.342 205.609 269.748 208.994C269.684 209.015 269.612 209.022 269.547 209.022ZM262.67 156.707C262.742 156.707 262.814 156.714 262.886 156.736C263.088 156.801 263.253 156.945 263.332 157.139L266.004 163.354C270.598 174.033 275.041 190.206 270.591 207.229C281.4 203.78 291.186 196.853 298.264 187.614C307.064 176.121 310.895 162.266 308.778 149.607L308.05 145.265C308 144.941 308.166 144.631 308.461 144.494L312.465 142.651C321.07 138.69 327.5 131.216 330.121 122.142C332.008 115.59 331.807 108.734 329.524 102.311L328.53 99.517C328.451 99.3009 328.487 99.0561 328.616 98.8617L330.316 96.4278C332.023 93.9866 333.304 91.3007 334.125 88.4491C337.999 75.012 331.13 61.0061 318.139 55.8718L315.014 54.6404C314.776 54.5468 314.603 54.3308 314.567 54.0716L314.099 50.7447C311.298 30.69 296.932 14.1061 277.497 8.50371C272.838 7.15713 268.049 6.48024 263.26 6.48024C252.473 6.48024 241.708 10.0159 232.944 16.4248L228.868 19.406C228.573 19.622 228.17 19.586 227.925 19.3196L224.433 15.6687C221.624 12.7307 218.074 10.5848 214.164 9.45424C212.069 8.84936 209.915 8.53972 207.755 8.53972C197.544 8.53972 188.428 15.4023 185.598 25.2316C185.022 27.2263 184.719 29.293 184.698 31.374L184.647 36.0331C184.64 36.3715 184.402 36.6668 184.071 36.7316L179.498 37.6533C165.485 40.4761 154.331 50.7447 150.378 64.4482C146.849 76.6971 149.65 89.8316 157.888 99.5962L160.445 102.628C160.639 102.858 160.668 103.182 160.524 103.442L158.601 106.912C157.607 108.705 156.823 110.599 156.261 112.544C154.259 119.493 155.08 126.802 158.572 133.131C162.072 139.461 167.818 144.048 174.767 146.057C179.34 147.375 184.172 147.461 188.766 146.323L192.539 145.387C192.82 145.315 193.123 145.423 193.296 145.661L195.578 148.808C201.562 157.06 209.901 162.914 219.694 165.737C223.806 166.925 228.04 167.523 232.274 167.523C240.865 167.523 249.269 165.068 256.585 160.43L262.295 156.808C262.396 156.75 262.533 156.707 262.67 156.707Z" fill="white"/>
<path d="M219.046 89.3851L199.747 86.3823L200.05 84.4524C200.561 81.1688 201.346 78.562 202.412 76.6249C203.477 74.6951 204.874 72.9956 206.61 71.5266C208.345 70.0648 212.118 67.5949 217.93 64.1312C221.019 62.3238 222.711 60.4875 222.999 58.6297C223.287 56.7646 222.963 55.2308 222.027 54.0282C221.084 52.8257 219.499 52.048 217.267 51.7023C214.862 51.3279 212.752 51.8175 210.93 53.1569C209.108 54.5035 207.668 57.1247 206.61 61.0204L187.282 55.5117C189.09 48.3683 192.625 42.9459 197.904 39.2446C203.182 35.5361 210.556 34.4272 220.04 35.9034C227.421 37.0555 233.138 39.5255 237.199 43.306C242.715 48.4331 244.933 54.4675 243.853 61.4021C243.407 64.2825 242.175 66.9324 240.166 69.3591C238.157 71.7859 234.398 74.5511 228.89 77.6403C225.044 79.815 222.553 81.6584 221.401 83.1562C220.241 84.6756 219.456 86.7423 219.046 89.3851ZM198.285 91.4086L218.959 94.6274L216.122 112.86L195.448 109.641L198.285 91.4086Z" fill="white"/>
<path d="M268.3 117.642L257.585 108.965L258.457 107.892C259.933 106.07 261.337 104.752 262.677 103.953C264.009 103.153 265.47 102.613 267.048 102.332C268.625 102.052 271.807 101.886 276.582 101.836C279.109 101.828 280.794 101.31 281.63 100.273C282.465 99.236 282.81 98.1847 282.666 97.1189C282.522 96.0532 281.824 95.0162 280.585 94.0081C279.253 92.9279 277.791 92.4743 276.2 92.6471C274.609 92.8199 272.801 93.9073 270.778 95.9164L260.934 85.6982C264.57 81.9824 268.653 79.923 273.19 79.5341C277.727 79.1453 282.623 81.0823 287.887 85.3453C291.985 88.665 294.598 92.2006 295.736 95.9524C297.284 101.036 296.5 105.508 293.374 109.361C292.078 110.959 290.386 112.14 288.305 112.911C286.217 113.681 282.94 114.034 278.483 113.969C275.365 113.933 273.19 114.171 271.951 114.682C270.706 115.186 269.489 116.173 268.3 117.642ZM254.914 111.514L266.392 120.81L258.19 130.935L246.712 121.638L254.914 111.514Z" fill="white"/>
<path d="M271.297 55.2671L266.659 48.9303L267.293 48.4694C268.373 47.6773 269.338 47.1588 270.188 46.914C271.038 46.6691 271.916 46.5827 272.831 46.6547C273.738 46.734 275.517 47.1012 278.152 47.7637C279.542 48.1237 280.543 48.0877 281.155 47.6341C281.767 47.1876 282.106 46.6547 282.185 46.0499C282.257 45.4378 282.026 44.7681 281.494 44.0336C280.917 43.2415 280.176 42.7806 279.276 42.651C278.375 42.5142 277.223 42.8526 275.819 43.6591L271.88 36.6094C274.422 35.09 276.964 34.5499 279.52 34.9963C282.077 35.4428 284.489 37.2143 286.765 40.3251C288.536 42.7446 289.465 45.0705 289.544 47.3028C289.659 50.3272 288.579 52.6748 286.297 54.3382C285.353 55.0295 284.252 55.4327 282.991 55.5552C281.731 55.6776 279.881 55.3967 277.432 54.7127C275.718 54.2446 274.487 54.0574 273.731 54.1582C272.975 54.259 272.168 54.6262 271.297 55.2671ZM264.816 49.9456L269.785 56.7289L263.801 61.1071L258.832 54.3238L264.816 49.9456Z" fill="white"/>
<path d="M92.417 145.114C86.4618 145.114 80.4706 143.486 75.1634 140.318C67.8544 135.961 62.6913 129.214 60.9415 121.746C55.0079 121.322 49.5423 118.405 45.8986 113.71C43.2559 110.311 41.7509 106.264 41.5276 101.973C39.965 100.907 38.5824 99.6106 37.4159 98.12C31.7343 90.811 32.4472 80.5496 39.0361 74.1119C36.2925 62.4031 40.6203 50.1254 50.1184 42.7444C57.5714 36.9548 67.0623 34.917 76.2364 37.1277C77.3021 34.6937 78.9656 32.5622 81.0682 30.9276C84.4455 28.2992 88.6509 27.1471 92.8995 27.68C97.148 28.2128 100.936 30.3659 103.557 33.7504C104.349 34.7729 105.012 35.8819 105.544 37.0628C114.207 35.6443 122.884 39.0287 128.278 45.9777C133.103 52.1849 134.557 60.322 132.195 67.8183C133.139 68.6248 133.995 69.5177 134.744 70.4826C140.872 78.3677 139.447 89.7741 131.554 95.9021C129.149 97.7744 126.298 99.0057 123.288 99.4882C121.718 105.364 118.355 110.441 113.537 114.178C107.46 118.902 99.6756 120.875 92.0858 119.637C92.0065 126.629 93.634 136.112 101.461 142.896C101.62 143.033 101.685 143.241 101.641 143.443C101.598 143.645 101.447 143.81 101.245 143.868C98.3794 144.696 95.3982 145.106 92.417 145.114ZM68.9346 37.3869C62.4321 37.3869 56.088 39.5328 50.8025 43.6373C41.5708 50.8167 37.4087 62.7992 40.2026 74.1623C40.2531 74.3568 40.1882 74.5656 40.0442 74.7096C33.6641 80.7296 32.9152 90.4942 38.3016 97.4287C39.4465 98.9049 40.8219 100.172 42.3773 101.195C42.5286 101.296 42.6222 101.461 42.6294 101.648C42.7878 105.803 44.228 109.735 46.7771 113.026C50.3128 117.577 55.6488 120.357 61.4168 120.652C61.6688 120.666 61.8848 120.846 61.9424 121.098C63.5338 128.422 68.5601 135.075 75.7395 139.353C83.1421 143.767 91.9057 145.092 99.9564 143.054C92.2298 135.824 90.7896 126.017 90.9768 118.952C90.984 118.787 91.056 118.628 91.1856 118.528C91.3152 118.427 91.4809 118.384 91.6465 118.412C99.1283 119.817 106.855 117.952 112.853 113.292C117.563 109.627 120.832 104.637 122.294 98.8473C122.352 98.6241 122.539 98.4585 122.762 98.4224C125.707 98.0192 128.508 96.8382 130.863 95.0092C138.258 89.2628 139.598 78.5693 133.851 71.1739C133.074 70.173 132.174 69.2513 131.18 68.4375C131 68.2863 130.928 68.0415 131 67.8255C133.405 60.5885 132.051 52.6818 127.378 46.669C122.15 39.9432 113.689 36.7172 105.292 38.251C105.026 38.3014 104.767 38.1574 104.666 37.9126C104.155 36.6668 103.478 35.5002 102.657 34.4417C100.216 31.3021 96.6944 29.293 92.7482 28.8033C88.8021 28.3064 84.892 29.3794 81.7523 31.8205C79.6785 33.4335 78.0582 35.5722 77.0789 38.0062C76.9709 38.2726 76.6828 38.4094 76.4164 38.3446C73.9321 37.7037 71.4189 37.3869 68.9346 37.3869Z" fill="#E6E6E6"/>
<path d="M72.4342 84.8988L62.4897 87.2391L62.252 86.2454C61.856 84.5532 61.7192 83.1346 61.856 81.9896C61.9928 80.8447 62.3384 79.7429 62.8929 78.6916C63.4474 77.6402 64.794 75.7032 66.9255 72.8804C68.0704 71.397 68.5241 70.1728 68.3008 69.2151C68.0776 68.2573 67.6168 67.5733 66.9255 67.1772C66.2342 66.7811 65.3124 66.7163 64.1603 66.9828C62.9217 67.278 61.9928 67.9261 61.3735 68.9342C60.7542 69.9424 60.5742 71.4978 60.8262 73.5933L50.3776 74.731C49.8447 70.9145 50.4928 67.5877 52.3219 64.7577C54.1509 61.9205 57.5066 59.933 62.396 58.7808C66.1982 57.8879 69.4602 57.9599 72.1678 58.9969C75.8475 60.3939 78.1086 62.8854 78.9511 66.4571C79.304 67.9405 79.2247 69.4671 78.7351 71.0369C78.2382 72.6067 76.9636 74.6878 74.897 77.273C73.464 79.0876 72.6142 80.4702 72.355 81.4207C72.0886 82.3785 72.1174 83.5378 72.4342 84.8988ZM62.7705 89.9611L73.4208 87.4552L75.6315 96.8525L64.9812 99.3584L62.7705 89.9611Z" fill="#EBEBEB"/>
<path d="M97.753 63.8941L90.8473 61.7986L91.0561 61.1073C91.4162 59.9336 91.8338 59.019 92.3235 58.371C92.8132 57.7157 93.4109 57.1684 94.1238 56.7219C94.8366 56.2755 96.3417 55.5698 98.646 54.6048C99.8701 54.1008 100.583 53.5175 100.785 52.855C100.986 52.1925 100.95 51.6092 100.669 51.1196C100.389 50.6299 99.8485 50.2626 99.0492 50.0178C98.1923 49.7586 97.393 49.8234 96.6585 50.2194C95.924 50.6155 95.2615 51.5012 94.671 52.8694L87.8877 49.8522C88.9174 47.3318 90.4945 45.5316 92.6115 44.4514C94.7358 43.3713 97.4866 43.3425 100.878 44.3722C103.521 45.1715 105.48 46.3741 106.769 47.9727C108.519 50.133 109.015 52.4517 108.266 54.9361C107.957 55.9658 107.366 56.8732 106.509 57.6581C105.653 58.443 104.133 59.2567 101.958 60.1064C100.439 60.7041 99.4309 61.2442 98.934 61.7338C98.4371 62.2307 98.0411 62.9508 97.753 63.8941ZM90.0624 63.5557L97.4578 65.8024L95.4775 72.3265L88.0821 70.0798L90.0624 63.5557Z" fill="#EBEBEB"/>
<path d="M180.024 292C257.134 292 319.644 288.351 319.644 283.849C319.644 279.347 257.134 275.697 180.024 275.697C102.914 275.697 40.4043 279.347 40.4043 283.849C40.4043 288.351 102.914 292 180.024 292Z" fill="#F5F5F5"/>
<path d="M113.495 162.295L112.832 162.015C113.43 160.61 113.768 159.437 113.876 158.443L114.589 158.522C114.481 159.588 114.121 160.819 113.495 162.295ZM113.214 154.05C111.817 150.983 109.217 149.046 105.703 148.455L105.826 147.742C109.592 148.376 112.371 150.457 113.869 153.755L113.214 154.05Z" fill="#3D67F0"/>
<path d="M109.441 169.539L102.355 172.765L102.031 172.06C101.484 170.857 101.174 169.813 101.102 168.934C101.03 168.056 101.131 167.185 101.383 166.32C101.642 165.456 102.355 163.807 103.536 161.381C104.17 160.099 104.328 159.119 104.018 158.435C103.709 157.751 103.262 157.312 102.686 157.118C102.11 156.923 101.412 157.01 100.591 157.384C99.7051 157.787 99.1146 158.414 98.7978 159.256C98.4881 160.106 98.5817 161.294 99.0786 162.821L91.4528 165.219C90.4878 162.446 90.4806 159.868 91.4312 157.478C92.3745 155.087 94.5924 153.099 98.0705 151.515C100.778 150.284 103.226 149.852 105.408 150.226C108.368 150.723 110.427 152.25 111.587 154.799C112.069 155.857 112.242 157.01 112.105 158.255C111.968 159.501 111.32 161.244 110.161 163.483C109.362 165.053 108.93 166.205 108.872 166.961C108.807 167.71 109.002 168.567 109.441 169.539ZM102.974 174.76L110.564 171.303L113.61 177.993L106.02 181.45L102.974 174.76Z" fill="#3D67F0"/>
<path d="M91.9136 185.548L88.3059 190.437L87.8163 190.077C86.9809 189.465 86.3761 188.875 85.9944 188.299C85.6128 187.73 85.3463 187.096 85.1951 186.405C85.0439 185.713 84.9071 184.316 84.7846 182.221C84.727 181.105 84.4678 180.378 83.9925 180.032C83.5173 179.686 83.0492 179.557 82.5811 179.636C82.1131 179.722 81.6738 180.046 81.2562 180.615C80.8097 181.227 80.6369 181.875 80.7449 182.574C80.8529 183.272 81.3714 184.043 82.2931 184.893L77.9941 189.436C76.2803 187.91 75.2937 186.153 75.0345 184.165C74.7681 182.178 75.5242 179.981 77.2956 177.576C78.671 175.704 80.176 174.48 81.8034 173.904C84.0069 173.119 85.9944 173.378 87.7515 174.674C88.4788 175.214 89.0332 175.935 89.4149 176.835C89.7965 177.735 90.0198 179.175 90.0774 181.134C90.1278 182.509 90.2718 183.46 90.5238 183.992C90.7831 184.547 91.2439 185.058 91.9136 185.548ZM89.4869 191.568L93.3466 186.326L97.9697 189.732L94.1099 194.974L89.4869 191.568Z" fill="#3D67F0"/>
<path d="M168.568 281.257C167.401 281.257 166.271 280.623 165.695 279.514C162.8 273.926 159.164 267.366 152.625 260.266C151.862 259.438 151.581 258.264 151.898 257.184C154.324 248.752 158.141 237.223 158.177 237.108C158.739 235.415 160.568 234.494 162.26 235.055C163.952 235.617 164.874 237.446 164.312 239.138C164.276 239.246 160.993 249.176 158.609 257.256C164.622 264.075 168.33 270.549 171.441 276.547C172.262 278.132 171.643 280.083 170.059 280.897C169.576 281.142 169.065 281.257 168.568 281.257Z" fill="#3D67F0"/>
<path d="M173.948 283.849H148.896L162.174 276.316L173.3 276.748L173.948 283.849Z" fill="#263238"/>
<path d="M171.547 253.522C182.95 249.958 189.8 239.406 186.846 229.954C183.892 220.502 172.253 215.729 160.85 219.292C149.446 222.856 142.597 233.408 145.551 242.86C148.505 252.312 160.144 257.085 171.547 253.522Z" fill="#263238"/>
<path d="M109.203 224.613C107.936 224.613 106.733 223.864 106.215 222.619C105.531 220.97 106.316 219.083 107.965 218.399C109.844 217.621 110.103 215.706 110.103 215.684C110.24 214.244 111.32 213.063 112.746 212.804C113.517 212.667 114.258 212.444 115.123 212.199C119.501 210.917 124.916 209.333 141.989 214.114C158.825 204.695 159.02 187.039 159.02 186.275C159.02 184.497 160.46 183.042 162.239 183.042C162.239 183.042 162.246 183.042 162.253 183.042C164.024 183.042 165.472 184.468 165.479 186.246C165.486 187.183 165.378 209.347 143.847 220.451C143.113 220.833 142.263 220.912 141.471 220.682C125.204 215.979 120.617 217.319 116.937 218.399C116.613 218.492 116.282 218.593 115.943 218.687C115.144 220.739 113.488 223.108 110.442 224.368C110.039 224.534 109.621 224.613 109.203 224.613Z" fill="#263238"/>
<path d="M146.959 201.506C140.83 177.152 124.506 114.33 176.821 110.492C223.757 107.05 236.64 169.519 239.765 191.165C241.587 203.781 242.206 215.216 242.307 224.16C242.444 235.689 234.342 245.633 223.037 247.93C197.466 253.122 173.264 253.864 156.968 247.433C152.561 245.691 149.897 241.205 150.321 236.488C150.955 229.481 150.969 217.448 146.959 201.506Z" fill="#3D67F0"/>
<path opacity="0.1" d="M239.764 191.158C236.812 170.765 225.204 114.079 184.561 110.536C179.83 110.125 175.164 112.451 172.989 116.671C171.175 120.185 171.232 124.441 173.947 128.653C182.905 142.544 204.27 190.553 201.044 216.714C199.575 228.618 192.108 238.123 198.603 251.502C206.445 250.854 214.668 249.637 223.043 247.931C234.349 245.641 242.45 235.696 242.313 224.16C242.205 215.217 241.593 203.774 239.764 191.158Z" fill="black"/>
<path d="M232.765 224.477C232.585 224.477 232.441 224.333 232.441 224.16C232.312 213.035 231.455 201.945 229.899 191.208C222.122 137.453 201.182 110.262 169.339 112.61C169.166 112.631 169.008 112.487 168.993 112.314C168.979 112.134 169.116 111.983 169.288 111.969C201.513 109.592 222.698 136.971 230.533 191.122C232.088 201.887 232.945 213.006 233.082 224.16C233.089 224.333 232.945 224.477 232.765 224.477Z" fill="#263238"/>
<path d="M232.268 255.247C243.671 251.683 250.521 241.132 247.567 231.68C244.613 222.228 232.974 217.454 221.57 221.018C210.167 224.582 203.318 235.133 206.272 244.585C209.225 254.037 220.864 258.811 232.268 255.247Z" fill="#263238"/>
<path d="M234.249 281.257C233.082 281.257 231.952 280.623 231.375 279.514C228.481 273.926 224.844 267.366 218.306 260.266C217.542 259.438 217.262 258.264 217.578 257.184C220.005 248.752 223.822 237.223 223.858 237.108C224.419 235.415 226.241 234.494 227.941 235.055C229.633 235.617 230.555 237.446 229.993 239.138C229.957 239.246 226.673 249.176 224.29 257.256C230.303 264.075 234.011 270.549 237.122 276.547C237.943 278.132 237.324 280.083 235.739 280.897C235.25 281.142 234.746 281.257 234.249 281.257Z" fill="#3D67F0"/>
<path d="M227.465 182.797C226.306 182.797 225.182 182.171 224.599 181.069C223.771 179.492 224.376 177.541 225.953 176.713C226.572 176.381 240.636 168.698 244.589 150.235C235.213 146.31 218.363 137.46 214.676 133.01C214.316 132.578 214.078 132.059 213.985 131.512C213.898 131.03 213.293 127.206 214.705 123.591L213.005 120.307C212.184 118.723 212.804 116.772 214.388 115.951C215.972 115.13 217.924 115.749 218.745 117.333L221.193 122.057C221.719 123.065 221.668 124.282 221.07 125.247C220.3 126.493 220.199 128.315 220.264 129.503C224.412 133.255 241.176 142.133 249.378 145.179C250.818 145.712 251.682 147.189 251.444 148.701C247.793 172.298 229.74 182.02 228.97 182.423C228.48 182.675 227.969 182.797 227.465 182.797Z" fill="#263238"/>
<path d="M217.161 132.563C216.858 132.563 216.548 132.477 216.275 132.297C215.526 131.807 215.317 130.806 215.807 130.064C215.915 129.892 218.586 125.866 222.648 124.779C223.505 124.548 224.397 125.06 224.628 125.924C224.858 126.788 224.347 127.674 223.483 127.904C220.646 128.667 218.529 131.807 218.507 131.836C218.205 132.304 217.686 132.563 217.161 132.563Z" fill="#263238"/>
<path d="M239.627 283.849H214.575L227.854 276.316L238.979 276.748L239.627 283.849Z" fill="#263238"/>
<path d="M187.167 187.364C196.643 186.525 203.712 178.931 202.957 170.402C202.202 161.873 193.908 155.639 184.432 156.478C174.956 157.317 167.887 164.911 168.642 173.44C169.397 181.969 177.691 188.203 187.167 187.364Z" fill="white"/>
<path d="M183.945 181.728C186.458 181.012 187.439 176.723 186.135 172.149C184.832 167.575 181.738 164.447 179.226 165.163C176.713 165.879 175.732 170.167 177.036 174.742C178.339 179.316 181.432 182.444 183.945 181.728Z" fill="#263238"/>
<path d="M166.199 174.84C177.073 173.443 198.611 167.301 202.161 164.824C199.36 156.644 186.347 149.644 174.703 153.583C164.204 157.14 166.199 174.84 166.199 174.84Z" fill="#263238"/>
<path d="M168.309 180.097C181.803 177.533 199.352 173.227 204.371 170.462C204.061 179.269 201.505 188.191 187.722 191.201C176.467 193.671 168.309 180.097 168.309 180.097Z" fill="#263238"/>
<path d="M157.192 188.56C162.075 185.33 162.718 177.702 158.63 171.523C154.542 165.343 147.27 162.953 142.387 166.183C137.505 169.414 136.861 177.041 140.95 183.221C145.038 189.4 152.31 191.79 157.192 188.56Z" fill="white"/>
<path d="M150.026 177.591C150.847 181.451 150.141 184.669 148.449 184.777C146.756 184.893 144.719 181.854 143.905 177.994C143.084 174.134 143.79 170.916 145.482 170.807C147.167 170.699 149.205 173.731 150.026 177.591Z" fill="#263238"/>
<path d="M136.64 176.115C143.934 176.979 158.423 176.014 160.828 174.696C159.049 167.711 150.422 159.812 142.58 160.82C135.509 161.742 136.64 176.115 136.64 176.115Z" fill="#263238"/>
<path d="M137.993 180.658C147.059 181.068 158.854 180.838 162.246 179.563C161.936 186.484 160.122 193.08 150.861 192.972C143.293 192.885 137.993 180.658 137.993 180.658Z" fill="#263238"/>
<path d="M190.171 149.234C176.568 149.234 167.531 142.515 167.085 142.177C165.666 141.097 165.385 139.073 166.465 137.648C167.538 136.229 169.562 135.948 170.98 137.021C171.139 137.136 181.875 144.971 196.789 142.141C198.546 141.81 200.231 142.962 200.562 144.712C200.893 146.462 199.741 148.154 197.991 148.485C195.248 149.011 192.634 149.234 190.171 149.234Z" fill="#263238"/>
<path d="M132.413 143.668C132.053 143.668 131.678 143.61 131.318 143.48C129.64 142.875 128.769 141.025 129.374 139.347C131.088 134.58 133.925 131.483 137.813 130.151C144.863 127.725 152.453 132.441 152.77 132.643C154.275 133.593 154.728 135.588 153.778 137.1C152.827 138.605 150.84 139.059 149.328 138.108C147.859 137.194 143.3 135.077 139.894 136.265C137.936 136.949 136.481 138.67 135.451 141.529C134.976 142.847 133.738 143.668 132.413 143.668Z" fill="#263238"/>
<path d="M157.868 198.164C157.781 198.164 157.688 198.15 157.601 198.128C157.09 197.977 156.795 197.459 156.939 196.947C156.96 196.861 157.572 194.765 160.222 193.397C163.931 191.489 169.577 191.885 177.008 194.571C177.512 194.751 177.771 195.313 177.591 195.81C177.411 196.314 176.857 196.573 176.353 196.393C167.834 193.304 163.405 193.973 161.195 195.075C159.265 196.04 158.825 197.415 158.804 197.473C158.674 197.891 158.285 198.164 157.868 198.164Z" fill="#263238"/>
<path d="M127.371 194.614C108.577 196.299 95.1182 204.084 95.1182 204.084C100.685 203.032 120.581 227.652 125.694 246.634C135.127 243.134 146.13 240.751 157.868 238.893C150.76 219.328 137.762 197.156 127.371 194.614Z" fill="#3D67F0"/>
<path opacity="0.6" d="M127.371 194.614C108.577 196.299 95.1182 204.084 95.1182 204.084C100.685 203.032 120.581 227.652 125.694 246.634C135.127 243.134 146.13 240.751 157.868 238.893C150.76 219.328 137.762 197.156 127.371 194.614Z" fill="white"/>
<path d="M127.371 194.614C115.072 193.225 95.1038 203.522 95.1038 203.522C91.5681 205.776 92.5258 210.01 94.4557 211.796C96.3063 209.139 116.944 202.226 124.707 201.297C120.847 197.725 124.433 195.133 127.371 194.614Z" fill="#3D67F0"/>
<path opacity="0.2" d="M127.371 194.614C115.072 193.225 95.1038 203.522 95.1038 203.522C91.5681 205.776 92.5258 210.01 94.4557 211.796C96.3063 209.139 116.944 202.226 124.707 201.297C120.847 197.725 124.433 195.133 127.371 194.614Z" fill="white"/>
<path d="M109.21 224.613C108.152 224.613 107.122 224.095 106.503 223.144C104.162 219.558 105.624 214.078 105.941 213.02C106.452 211.313 108.252 210.341 109.959 210.852C111.666 211.363 112.638 213.156 112.134 214.863C111.608 216.67 111.5 218.982 111.918 219.616C112.89 221.106 112.472 223.108 110.974 224.088C110.427 224.448 109.815 224.613 109.21 224.613Z" fill="#263238"/>
<path d="M98.1715 83.4529H87.2764V78.5347L98.1715 65.5801H103.385V78.8155H106.085V83.4601H103.385V87.4855H98.1715V83.4529ZM98.1715 78.8083V72.0322L92.4107 78.8083H98.1715Z" fill="#3D67F0"/>
<path d="M137.628 83.4519H126.733V78.5337L137.628 65.5791H142.842V78.8145H145.542V83.4592H142.842V87.4845H137.628V83.4519ZM137.628 78.8073V72.0312L131.868 78.8073H137.628Z" fill="#3D67F0"/>
<path d="M107.95 76.6186C107.95 72.5284 108.685 69.6624 110.161 68.0278C111.637 66.3932 113.877 65.5723 116.894 65.5723C118.341 65.5723 119.529 65.7523 120.466 66.1051C121.394 66.4652 122.158 66.9261 122.741 67.5021C123.331 68.0782 123.792 68.6759 124.131 69.3096C124.469 69.9433 124.743 70.6778 124.945 71.5203C125.348 73.1261 125.549 74.7967 125.549 76.5466C125.549 80.4495 124.887 83.3155 123.569 85.1229C122.244 86.9376 119.969 87.8377 116.743 87.8377C114.928 87.8377 113.466 87.5497 112.35 86.9736C111.234 86.3975 110.319 85.5478 109.606 84.4317C109.088 83.6395 108.685 82.5522 108.397 81.1768C108.094 79.8014 107.95 78.282 107.95 76.6186ZM113.884 76.633C113.884 79.3766 114.129 81.2488 114.611 82.2498C115.094 83.2507 115.799 83.7548 116.721 83.7548C117.326 83.7548 117.852 83.5387 118.298 83.1139C118.744 82.689 119.069 82.0121 119.285 81.0976C119.493 80.1759 119.601 78.7429 119.601 76.7914C119.601 73.9326 119.357 72.0099 118.874 71.0234C118.392 70.0369 117.664 69.5472 116.692 69.5472C115.706 69.5472 114.986 70.0513 114.546 71.0522C114.107 72.0604 113.884 73.9182 113.884 76.633Z" fill="#3D67F0"/>
<path d="M159.063 65.9395H176.893V70.5337H165.732V73.9541H176.087V78.3468H165.732V82.5881H177.217V87.4632H159.063V65.9395Z" fill="#263238"/>
<path d="M180.89 87.4704V65.9395H191.979C194.039 65.9395 195.608 66.1123 196.696 66.4651C197.783 66.818 198.662 67.4733 199.324 68.4238C199.987 69.3815 200.325 70.5409 200.325 71.9091C200.325 73.1044 200.073 74.1342 199.562 74.9983C199.051 75.8624 198.352 76.5681 197.459 77.1082C196.89 77.4538 196.113 77.7347 195.126 77.9579C195.918 78.2243 196.494 78.4908 196.854 78.75C197.099 78.93 197.452 79.3045 197.92 79.8806C198.388 80.4566 198.698 80.9031 198.849 81.2199L202.068 87.456H194.55L190.993 80.8743C190.539 80.0246 190.143 79.4701 189.79 79.2181C189.308 78.8868 188.768 78.7212 188.163 78.7212H187.572V87.4632H180.89V87.4704ZM187.572 74.6671H190.381C190.683 74.6671 191.273 74.5662 192.145 74.3718C192.584 74.2854 192.944 74.0622 193.225 73.6949C193.506 73.3349 193.643 72.9172 193.643 72.4491C193.643 71.7579 193.419 71.2178 192.98 70.8505C192.541 70.4761 191.713 70.2888 190.496 70.2888H187.572V74.6671Z" fill="#263238"/>
<path d="M204.285 87.4704V65.9395H215.375C217.434 65.9395 219.004 66.1123 220.091 66.4651C221.179 66.818 222.057 67.4733 222.72 68.4238C223.382 69.3815 223.721 70.5409 223.721 71.9091C223.721 73.1044 223.469 74.1342 222.957 74.9983C222.446 75.8624 221.748 76.5681 220.855 77.1082C220.286 77.4538 219.508 77.7347 218.521 77.9579C219.314 78.2243 219.89 78.4908 220.25 78.75C220.495 78.93 220.847 79.3045 221.315 79.8806C221.784 80.4566 222.093 80.9031 222.244 81.2199L225.463 87.456H217.945L214.388 80.8743C213.934 80.0246 213.538 79.4701 213.186 79.2181C212.703 78.8868 212.163 78.7212 211.558 78.7212H210.968V87.4632H204.285V87.4704ZM210.968 74.6671H213.776C214.078 74.6671 214.669 74.5662 215.54 74.3718C215.98 74.2854 216.34 74.0622 216.62 73.6949C216.901 73.3349 217.038 72.9172 217.038 72.4491C217.038 71.7579 216.815 71.2178 216.376 70.8505C215.936 70.4761 215.108 70.2888 213.891 70.2888H210.968V74.6671Z" fill="#263238"/>
<path d="M226.241 76.7194C226.241 73.2053 227.221 70.4689 229.179 68.5103C231.138 66.5516 233.867 65.5723 237.36 65.5723C240.946 65.5723 243.704 66.5372 245.641 68.4599C247.578 70.3825 248.55 73.0829 248.55 76.5466C248.55 79.0597 248.125 81.1264 247.282 82.7394C246.433 84.3524 245.209 85.6054 243.61 86.4983C242.011 87.3913 240.017 87.8449 237.626 87.8449C235.199 87.8449 233.19 87.4561 231.599 86.6856C230.007 85.9151 228.718 84.6909 227.732 83.0131C226.738 81.3352 226.241 79.2397 226.241 76.7194ZM232.895 76.7482C232.895 78.9229 233.298 80.4855 234.105 81.436C234.911 82.3866 236.013 82.8618 237.403 82.8618C238.836 82.8618 239.937 82.3938 240.722 81.4648C241.507 80.5359 241.896 78.8653 241.896 76.453C241.896 74.4295 241.486 72.9461 240.672 72.0099C239.851 71.0738 238.742 70.6058 237.345 70.6058C236.006 70.6058 234.926 71.081 234.112 72.0316C233.305 72.9893 232.895 74.5591 232.895 76.7482Z" fill="#263238"/>
<path d="M252.229 87.4704V65.9395H263.319C265.379 65.9395 266.948 66.1123 268.036 66.4651C269.123 66.818 270.002 67.4733 270.664 68.4238C271.327 69.3815 271.665 70.5409 271.665 71.9091C271.665 73.1044 271.413 74.1342 270.902 74.9983C270.39 75.8624 269.692 76.5681 268.799 77.1082C268.23 77.4538 267.452 77.7347 266.466 77.9579C267.258 78.2243 267.834 78.4908 268.194 78.75C268.439 78.93 268.792 79.3045 269.26 79.8806C269.728 80.4566 270.038 80.9031 270.189 81.2199L273.408 87.456H265.89L262.332 80.8743C261.879 80.0246 261.483 79.4701 261.13 79.2181C260.647 78.8868 260.107 78.7212 259.502 78.7212H258.912V87.4632H252.229V87.4704ZM258.912 74.6671H261.72C262.023 74.6671 262.613 74.5662 263.485 74.3718C263.924 74.2854 264.284 74.0622 264.565 73.6949C264.846 73.3349 264.982 72.9172 264.982 72.4491C264.982 71.7579 264.759 71.2178 264.32 70.8505C263.881 70.4761 263.053 70.2888 261.836 70.2888H258.912V74.6671Z" fill="#263238"/>
</g>
<defs>
<clipPath id="clip0_3718_12702">
<rect width="360.049" height="292" fill="white"/>
</clipPath>
</defs>
</svg>
