<svg width="198" height="55" viewBox="0 0 198 55" fill="none" xmlns="http://www.w3.org/2000/svg">
<path d="M126.081 41.8362C121.332 43.7169 117.972 48.3422 117.972 53.7516H113.143C113.143 45.6614 118.603 38.8429 126.047 36.7671L126.081 41.8362Z" fill="#A4B4CB"/>
<path d="M130.817 45.7583C126.393 45.7583 122.804 49.3367 122.804 53.753H130.817V45.7583Z" fill="#A4B4CB"/>
<path d="M159.049 45.3779C159.563 45.1808 160.056 44.9241 160.583 44.8067C161.458 44.6116 162.316 44.6733 163.038 45.3182C163.092 45.3679 163.25 45.356 163.329 45.3142C164.028 44.946 164.768 44.737 165.558 44.7211C165.859 44.7151 166.166 44.733 166.459 44.7927C167.503 45.0097 168.099 45.7142 168.251 46.8924C168.296 47.2467 168.32 47.6069 168.322 47.9651C168.33 49.7026 168.326 51.442 168.324 53.1795C168.324 53.6094 168.261 53.6711 167.832 53.6731C167.481 53.6751 167.131 53.6751 166.78 53.6731C166.332 53.6711 166.268 53.6094 166.268 53.1696C166.268 51.45 166.272 49.7305 166.264 48.0109C166.262 47.7203 166.234 47.4258 166.172 47.1412C166.082 46.7272 165.857 46.5561 165.442 46.5063C164.869 46.4367 164.333 46.57 163.818 46.8048C163.748 46.8367 163.673 46.9541 163.673 47.0297C163.677 47.7761 163.706 48.5204 163.71 49.2667C163.718 50.5803 163.712 51.8938 163.712 53.2054C163.712 53.5895 163.633 53.6691 163.248 53.6711C162.879 53.6731 162.51 53.6731 162.141 53.6711C161.732 53.6691 161.658 53.5974 161.658 53.1934C161.656 51.5018 161.66 49.8121 161.656 48.1204C161.656 47.8756 161.64 47.6288 161.618 47.386C161.558 46.7153 161.211 46.3889 160.541 46.4984C160.086 46.572 159.649 46.7849 159.216 46.9641C159.148 46.9919 159.111 47.1671 159.111 47.2745C159.105 49.221 159.107 51.1674 159.107 53.1138C159.107 53.6253 159.057 53.6731 158.532 53.6731C158.181 53.6731 157.832 53.6771 157.481 53.6731C157.132 53.6691 157.052 53.5875 157.036 53.2352C157.032 53.1496 157.036 53.0661 157.036 52.9805C157.036 50.429 157.036 47.8796 157.036 45.3281C157.036 44.9181 157.124 44.8266 157.531 44.8246C157.872 44.8246 158.213 44.8246 158.554 44.8246C158.931 44.8266 159.009 44.9022 159.037 45.2863C159.039 45.3341 159.049 45.3779 159.049 45.3779Z" fill="#A4B4CB"/>
<path d="M152.568 44.8067C152.568 44.0325 152.572 43.2782 152.566 42.5239C152.56 41.702 152.548 41.7438 153.336 41.7497C153.639 41.7517 153.942 41.7557 154.245 41.7497C154.511 41.7438 154.624 41.8671 154.622 42.1279C154.618 42.5717 154.62 43.0155 154.62 43.4593C154.62 46.578 154.62 49.6947 154.62 52.8133C154.62 53.2472 154.588 53.3009 154.177 53.4024C153.007 53.691 151.818 53.8642 150.609 53.7826C148.796 53.6612 147.698 52.7477 147.393 50.9624C147.182 49.7245 147.17 48.4568 147.463 47.2188C147.804 45.7799 148.913 44.8565 150.397 44.7709C151.026 44.735 151.662 44.7908 152.292 44.8067C152.37 44.8087 152.446 44.8067 152.568 44.8067ZM152.568 46.4964C152.017 46.4645 151.493 46.4128 150.966 46.4128C150.14 46.4128 149.597 46.8487 149.454 47.6627C149.272 48.7095 149.272 49.7703 149.446 50.8191C149.586 51.667 150.054 52.071 150.914 52.1168C151.365 52.1406 151.82 52.077 152.274 52.061C152.518 52.0511 152.574 51.9337 152.572 51.7008C152.562 50.0847 152.566 48.4707 152.566 46.8546C152.568 46.7511 152.568 46.6496 152.568 46.4964Z" fill="#A4B4CB"/>
<path d="M197.058 49.2654C197.042 50.0237 197.046 50.7799 196.778 51.5044C196.268 52.8876 195.256 53.6439 193.804 53.7633C193.23 53.811 192.621 53.7752 192.063 53.6379C190.808 53.3294 190.004 52.4836 189.705 51.2417C189.394 49.952 189.394 48.6325 189.695 47.3408C190.048 45.8283 191.187 44.9148 192.735 44.7556C193.495 44.6779 194.231 44.7376 194.933 45.0342C196.12 45.5357 196.744 46.4831 196.95 47.715C197.032 48.2245 197.024 48.7479 197.058 49.2654ZM191.546 49.2554C191.588 49.7371 191.59 50.2326 191.684 50.7103C191.851 51.5501 192.448 52.0218 193.256 52.0258C194.089 52.0318 194.684 51.576 194.861 50.7182C195.055 49.7868 195.023 48.8395 194.887 47.9041C194.819 47.4264 194.586 47.0105 194.157 46.7398C193.168 46.1189 191.927 46.6562 191.68 47.8384C191.586 48.2961 191.59 48.7758 191.546 49.2554Z" fill="#A4B4CB"/>
<path d="M142.893 53.2028C142.394 53.378 141.898 53.5889 141.383 53.7223C140.759 53.8835 140.12 53.8318 139.508 53.6307C138.748 53.382 138.267 52.8625 138.078 52.0824C137.938 51.5132 137.926 50.938 138.052 50.3688C138.297 49.2662 139.107 48.7746 140.124 48.5776C140.715 48.4642 141.325 48.4502 141.928 48.4084C142.207 48.3885 142.49 48.4044 142.831 48.4044C142.801 47.9706 142.805 47.5646 142.736 47.1725C142.656 46.7267 142.301 46.46 141.77 46.464C140.843 46.47 139.917 46.5038 138.991 46.5535C138.555 46.5774 138.487 46.5456 138.487 46.1117C138.487 45.857 138.489 45.6022 138.487 45.3475C138.485 45.1485 138.575 45.0191 138.772 44.9853C140.166 44.7425 141.563 44.5394 142.961 44.9355C144.096 45.2579 144.804 46.1137 144.838 47.2879C144.882 48.8463 144.86 50.4046 144.866 51.9629C144.868 52.3968 144.87 52.8327 144.864 53.2665C144.86 53.5969 144.784 53.6705 144.461 53.6745C144.148 53.6785 143.837 53.6765 143.524 53.6745C142.979 53.6725 142.979 53.6725 142.893 53.2028ZM142.807 49.8075C142.259 49.8075 141.756 49.7797 141.257 49.8135C140.523 49.8653 140.13 50.2096 140.073 50.8007C140.053 51.0057 140.055 51.2166 140.071 51.4236C140.101 51.8336 140.336 52.0744 140.749 52.1361C141.417 52.2356 142.047 52.1023 142.644 51.8017C142.714 51.7659 142.799 51.6724 142.799 51.6027C142.811 51.0116 142.807 50.4185 142.807 49.8075Z" fill="#A4B4CB"/>
<path d="M177.36 49.2435C177.394 49.751 177.39 50.2645 177.468 50.764C177.606 51.6397 178.132 52.0716 179.014 52.0597C179.618 52.0517 180.223 51.998 180.827 51.9641C181.208 51.9422 181.264 51.994 181.266 52.3622C181.268 52.6448 181.292 52.9334 181.254 53.21C181.236 53.3414 181.117 53.5404 181.011 53.5643C179.762 53.8389 178.499 53.9981 177.275 53.4787C176.156 53.005 175.529 52.0875 175.415 50.9232C175.31 49.8306 175.266 48.7042 175.417 47.6235C175.675 45.7905 176.838 44.8193 178.715 44.7357C179.425 44.7038 180.143 44.8412 180.857 44.9088C181.152 44.9367 181.284 45.1078 181.268 45.4084C181.254 45.6731 181.268 45.9378 181.264 46.2025C181.262 46.5149 181.19 46.5846 180.873 46.5687C180.297 46.5388 179.722 46.499 179.146 46.4652C177.969 46.3955 177.5 47.0921 177.41 48.1051C177.378 48.4793 177.404 48.8594 177.404 49.2375C177.392 49.2415 177.376 49.2435 177.36 49.2435Z" fill="#A4B4CB"/>
<path d="M185.669 45.3649C186.177 45.1738 186.672 44.9728 187.179 44.8037C187.372 44.738 187.588 44.734 187.795 44.7221C188.096 44.7041 188.214 44.8156 188.22 45.1121C188.226 45.4326 188.226 45.755 188.222 46.0754C188.218 46.3779 188.138 46.4575 187.829 46.4675C187.187 46.4894 186.578 46.6406 185.994 46.9073C185.802 46.9949 185.738 47.1063 185.738 47.3153C185.746 49.2418 185.744 51.1704 185.744 53.0969C185.744 53.6203 185.689 53.676 185.156 53.676C184.815 53.676 184.474 53.678 184.133 53.676C183.76 53.674 183.666 53.5805 183.666 53.2043C183.664 50.9275 183.666 48.6507 183.666 46.3739C183.666 45.9958 183.664 45.6177 183.668 45.2395C183.672 44.943 183.78 44.8335 184.083 44.8295C184.396 44.8236 184.707 44.8275 185.02 44.8275C185.617 44.8295 185.619 44.8295 185.669 45.3649Z" fill="#A4B4CB"/>
<path d="M170.801 49.2707C170.801 47.9492 170.801 46.6277 170.801 45.3042C170.801 44.9061 170.879 44.8285 171.286 44.8265C171.675 44.8245 172.062 44.8225 172.451 44.8265C172.758 44.8305 172.86 44.932 172.86 45.2365C172.862 47.9094 172.862 50.5802 172.86 53.2531C172.86 53.5655 172.762 53.6671 172.459 53.671C172.042 53.677 171.625 53.675 171.21 53.671C170.893 53.6671 170.807 53.5835 170.805 53.263C170.801 51.9336 170.801 50.6021 170.801 49.2707Z" fill="#A4B4CB"/>
<path d="M171.801 43.6367C171.573 43.6367 171.348 43.6347 171.121 43.6367C170.879 43.6387 170.75 43.5253 170.75 43.2785C170.75 42.8546 170.752 42.4307 170.75 42.0067C170.75 41.758 170.881 41.6465 171.119 41.6465C171.599 41.6445 172.082 41.6445 172.563 41.6465C172.78 41.6465 172.9 41.7679 172.904 41.9769C172.912 42.4187 172.912 42.8625 172.904 43.3044C172.9 43.5133 172.784 43.6347 172.563 43.6327C172.311 43.6347 172.056 43.6347 171.801 43.6367C171.801 43.6367 171.801 43.6347 171.801 43.6367Z" fill="#A4B4CB"/>
<path d="M28.0403 18.6551C28.0403 20.8313 27.784 22.6051 27.2715 23.9764C26.7891 25.3179 26.0202 26.3464 24.9649 27.0618C23.9398 27.7773 22.6282 28.2692 21.0302 28.5375C19.4322 28.776 17.5177 28.8952 15.2865 28.8952C13.9297 28.8952 12.6332 28.8952 11.397 28.8952C10.1608 28.8952 9.00004 28.8803 7.91461 28.8505C6.82918 28.8505 5.80404 28.8505 4.83922 28.8505C3.90454 28.8505 3.03016 28.8505 2.21609 28.8505V11.2321C2.21609 10.1887 2.42715 9.44338 2.84926 8.99621C3.27137 8.54904 4.05529 8.31055 5.20103 8.28074C5.98495 8.28074 6.82918 8.28074 7.7337 8.28074C8.66838 8.25093 9.60306 8.23603 10.5377 8.23603C11.5026 8.23603 12.4523 8.23603 13.387 8.23603C14.3518 8.23603 15.2413 8.23603 16.0553 8.23603C18.1961 8.26584 20.0202 8.4298 21.5277 8.72791C23.0353 8.99621 24.2715 9.50301 25.2363 10.2483C26.2011 10.9638 26.9097 12.0072 27.3619 13.3785C27.8142 14.72 28.0403 16.4788 28.0403 18.6551ZM9.63321 25.139C9.93472 25.139 10.2815 25.139 10.6734 25.139C11.0955 25.139 11.5327 25.1539 11.985 25.1837C12.4674 25.1837 12.9347 25.1837 13.387 25.1837C13.8393 25.1837 14.2312 25.1837 14.5629 25.1837C15.6182 25.1837 16.5227 25.0943 17.2765 24.9154C18.0302 24.7366 18.6332 24.4086 19.0855 23.9317C19.5378 23.4547 19.8694 22.7839 20.0805 21.9194C20.2915 21.0549 20.3971 19.9668 20.3971 18.6551C20.3971 16.777 20.2011 15.3609 19.8091 14.407C19.4473 13.453 18.8292 12.8121 17.9549 12.4841C17.1106 12.1264 15.9197 11.9475 14.382 11.9475C14.0202 11.9475 13.5528 11.9475 12.98 11.9475C12.4372 11.9475 11.8945 11.9624 11.3518 11.9922C10.8091 11.9922 10.3418 12.0072 9.94979 12.037C9.85934 12.186 9.78396 12.3649 9.72366 12.5736C9.66336 12.7822 9.63321 13.0804 9.63321 13.4679V25.139ZM0 17.8054H14.789V19.9519H0V17.8054Z" fill="#A4B4CB"/>
<path d="M29.5462 28.8505L36.7372 11.7687C37.2196 10.606 37.9131 9.71168 38.8176 9.08565C39.7221 8.4298 41.1392 8.10188 43.0689 8.10188C44.6669 8.10188 45.9634 8.39999 46.9583 8.99621C47.9533 9.59244 48.7071 10.5166 49.2197 11.7687L56.4559 28.8505H48.4056L46.4609 24.2447H37.0538L35.2447 28.8505H29.5462ZM38.2297 21.4275H45.1041L42.6618 15.1671C42.5714 14.9287 42.4659 14.72 42.3453 14.5411C42.2247 14.3324 42.0136 14.2281 41.7121 14.2281C41.3804 14.2281 41.1392 14.3324 40.9885 14.5411C40.8679 14.72 40.7623 14.9287 40.6719 15.1671L38.2297 21.4275ZM43.0237 5.59773C41.7875 5.59773 40.7623 5.49339 39.9483 5.28471C39.1342 5.07603 38.5312 4.62886 38.1392 3.9432C37.7473 3.22773 37.5513 2.19924 37.5513 0.857733V0.5H40.1292V0.768301C40.1292 1.18566 40.1895 1.58811 40.3101 1.97566C40.4608 2.33339 40.7322 2.6166 41.1242 2.82528C41.5463 3.03396 42.1644 3.1383 42.9784 3.1383C43.8227 3.1383 44.4408 3.03396 44.8327 2.82528C45.2548 2.6166 45.5262 2.33339 45.6468 1.97566C45.7975 1.61792 45.8729 1.21547 45.8729 0.768301V0.5H48.4056V0.857733C48.4056 2.19924 48.2096 3.21283 47.8176 3.89848C47.4558 4.58414 46.8679 5.04622 46.0538 5.28471C45.2699 5.49339 44.2598 5.59773 43.0237 5.59773Z" fill="#A4B4CB"/>
<path d="M59.5935 28.8505V10.7849C59.5935 9.7415 59.7442 9.07074 60.0457 8.77263C60.3472 8.4447 61.0558 8.28074 62.1714 8.28074H69.1814L79.0408 21.4275L79.3121 22.456V8.28074H84.7393C84.679 8.34037 84.6338 8.53414 84.6036 8.86206C84.6036 9.16018 84.6036 9.50301 84.6036 9.89055C84.6036 10.2483 84.6036 10.5762 84.6036 10.8743V26.6594C84.6036 27.6432 84.3926 28.2543 83.9704 28.4928C83.5483 28.7313 82.7644 28.8505 81.6187 28.8505H75.2418L65.1563 15.4355L64.9302 14.3175V28.8505H59.5935Z" fill="#A4B4CB"/>
<path d="M102.101 29.0741C99.7186 29.0741 97.6834 28.94 95.995 28.6717C94.3065 28.3735 92.9196 27.8518 91.8342 27.1066C90.7789 26.3315 89.995 25.2732 89.4824 23.9317C89 22.5603 88.7588 20.8015 88.7588 18.6551C88.7588 16.3298 89.0754 14.4666 89.7085 13.0655C90.3719 11.6345 91.2914 10.5613 92.4673 9.84584C93.6734 9.13036 95.1055 8.65338 96.7638 8.41489C98.4221 8.1764 100.246 8.05716 102.236 8.05716C104.437 8.05716 106.382 8.10187 108.07 8.19131C109.759 8.25093 111.01 8.37018 111.824 8.54904C112.668 8.6981 113.271 8.93659 113.633 9.26452C113.995 9.56263 114.221 9.90546 114.312 10.293C114.432 10.6806 114.493 11.0681 114.493 11.4556V13.1996C114.312 12.9611 113.874 12.7673 113.181 12.6183C112.488 12.4692 111.673 12.35 110.739 12.2605C109.834 12.1413 108.9 12.0519 107.935 11.9922C106.97 11.9326 106.08 11.9028 105.266 11.9028C104.482 11.873 103.879 11.8581 103.457 11.8581C101.709 11.8581 100.322 12.037 99.2965 12.3947C98.2714 12.7226 97.5176 13.3785 97.0352 14.3622C96.5829 15.3162 96.3568 16.7471 96.3568 18.6551C96.3568 20.4437 96.5678 21.8151 96.99 22.769C97.4422 23.6932 98.1206 24.3341 99.0251 24.6919C99.9297 25.0496 101.106 25.2285 102.553 25.2285C103.97 25.2285 105.07 25.1241 105.854 24.9154C106.668 24.6769 107.241 24.2745 107.573 23.7081C107.905 23.1417 108.085 22.3964 108.116 21.4722C108.116 21.2039 108.116 20.9804 108.116 20.8015C108.116 20.5928 108.116 20.4288 108.116 20.3096H100.427C100.427 19.3258 100.487 18.5656 100.608 18.029C100.729 17.4626 101.015 17.0602 101.467 16.8217C101.95 16.5832 102.719 16.4639 103.774 16.4639H115.307L115.261 21.3828C115.261 22.7839 115.08 23.9764 114.719 24.9602C114.387 25.9439 113.739 26.7339 112.774 27.3302C111.839 27.9264 110.498 28.3735 108.749 28.6717C107.03 28.94 104.814 29.0741 102.101 29.0741Z" fill="#A4B4CB"/>
<path d="M130.217 8.28074H155.182V12.1711H146.453V26.4358C146.453 27.3898 146.303 28.0307 146.001 28.3586C145.7 28.6866 145.021 28.8505 143.966 28.8505H138.991V12.1711H130.217V8.28074Z" fill="#A4B4CB"/>
<path d="M158.614 28.8505C158.614 25.8098 158.614 22.769 158.614 19.7283C158.614 16.6875 158.614 13.6468 158.614 10.606C158.614 10.0992 158.645 9.68187 158.705 9.35395C158.795 8.99621 159.006 8.72791 159.338 8.54904C159.7 8.37018 160.273 8.28074 161.057 8.28074H166.031V28.8505H158.614Z" fill="#A4B4CB"/>
<path d="M171.334 28.8505V10.7849C171.334 9.7415 171.485 9.07074 171.787 8.77263C172.088 8.4447 172.797 8.28074 173.912 8.28074H180.922L190.782 21.4275L191.053 22.456V8.28074H196.48C196.42 8.34037 196.375 8.53414 196.344 8.86206C196.344 9.16018 196.344 9.50301 196.344 9.89055C196.344 10.2483 196.344 10.5762 196.344 10.8743V26.6594C196.344 27.6432 196.133 28.2543 195.711 28.4928C195.289 28.7313 194.505 28.8505 193.359 28.8505H186.983L176.897 15.4355L176.671 14.3175V28.8505H171.334Z" fill="#A4B4CB"/>
<line x1="157.025" y1="17.5821" x2="169.247" y2="10.7542" stroke="#24346A" stroke-width="4"/>
</svg>
