<svg width="140" height="38" viewBox="0 0 140 38" fill="none" xmlns="http://www.w3.org/2000/svg">
<path d="M89.1481 29.0886C85.7899 30.4121 83.4147 33.6669 83.4147 37.4735H80C80 31.7804 83.8604 26.9822 89.1242 25.5215L89.1481 29.0886Z" fill="#BDBDBD"/>
<path d="M92.4968 31.8486C89.3684 31.8486 86.8311 34.3668 86.8311 37.4745H92.4968V31.8486Z" fill="#BDBDBD"/>
<path d="M112.459 31.581C112.822 31.4424 113.171 31.2617 113.543 31.1791C114.162 31.0418 114.769 31.0853 115.279 31.539C115.318 31.574 115.429 31.5656 115.485 31.5362C115.979 31.2771 116.502 31.1301 117.061 31.1189C117.274 31.1147 117.491 31.1273 117.698 31.1693C118.436 31.3219 118.858 31.8177 118.965 32.6468C118.997 32.8961 119.014 33.1496 119.016 33.4017C119.021 34.6244 119.019 35.8484 119.017 37.0711C119.017 37.3736 118.972 37.417 118.669 37.4184C118.421 37.4198 118.174 37.4198 117.925 37.4184C117.608 37.417 117.563 37.3736 117.563 37.0641C117.563 35.854 117.566 34.644 117.56 33.4339C117.559 33.2295 117.539 33.0222 117.495 32.8219C117.432 32.5306 117.272 32.4102 116.979 32.3751C116.574 32.3261 116.195 32.42 115.831 32.5852C115.782 32.6076 115.728 32.6903 115.728 32.7435C115.731 33.2687 115.752 33.7925 115.755 34.3177C115.76 35.242 115.756 36.1663 115.756 37.0893C115.756 37.3596 115.7 37.4156 115.428 37.417C115.167 37.4184 114.906 37.4184 114.645 37.417C114.356 37.4156 114.303 37.3652 114.303 37.0809C114.302 35.8904 114.305 34.7014 114.302 33.511C114.302 33.3387 114.291 33.165 114.275 32.9942C114.233 32.5222 113.987 32.2925 113.514 32.3695C113.192 32.4214 112.883 32.5712 112.577 32.6973C112.529 32.7169 112.502 32.8401 112.502 32.9157C112.498 34.2855 112.499 35.6552 112.499 37.0249C112.499 37.3848 112.464 37.4184 112.093 37.4184C111.845 37.4184 111.598 37.4212 111.35 37.4184C111.103 37.4156 111.047 37.3582 111.035 37.1103C111.033 37.0501 111.035 36.9913 111.035 36.931C111.035 35.1356 111.035 33.3415 111.035 31.546C111.035 31.2575 111.097 31.1931 111.385 31.1917C111.626 31.1917 111.868 31.1917 112.109 31.1917C112.375 31.1931 112.43 31.2463 112.45 31.5166C112.452 31.5502 112.459 31.581 112.459 31.581Z" fill="#BDBDBD"/>
<path d="M107.877 31.1791C107.877 30.6343 107.879 30.1035 107.875 29.5727C107.871 28.9943 107.863 29.0237 108.42 29.0279C108.634 29.0293 108.848 29.0321 109.063 29.0279C109.25 29.0237 109.331 29.1105 109.329 29.294C109.327 29.6063 109.328 29.9186 109.328 30.2309C109.328 32.4256 109.328 34.6188 109.328 36.8134C109.328 37.1187 109.305 37.1565 109.015 37.2279C108.187 37.431 107.346 37.5529 106.492 37.4954C105.21 37.41 104.434 36.7672 104.218 35.5109C104.068 34.6398 104.06 33.7477 104.267 32.8765C104.509 31.8639 105.293 31.2141 106.342 31.1539C106.786 31.1287 107.236 31.1679 107.682 31.1791C107.737 31.1805 107.791 31.1791 107.877 31.1791ZM107.877 32.3681C107.487 32.3457 107.116 32.3093 106.744 32.3093C106.16 32.3093 105.777 32.616 105.675 33.1888C105.547 33.9255 105.547 34.672 105.669 35.4101C105.768 36.0067 106.1 36.291 106.707 36.3232C107.026 36.34 107.348 36.2952 107.669 36.284C107.841 36.277 107.881 36.1944 107.879 36.0305C107.872 34.8933 107.875 33.7575 107.875 32.6202C107.877 32.5474 107.877 32.476 107.877 32.3681Z" fill="#BDBDBD"/>
<path d="M139.334 34.3165C139.322 34.85 139.325 35.3822 139.136 35.892C138.775 36.8654 138.06 37.3976 137.033 37.4816C136.627 37.5152 136.197 37.49 135.802 37.3934C134.915 37.1763 134.346 36.5811 134.135 35.7072C133.915 34.7996 133.915 33.8711 134.128 32.9621C134.377 31.8978 135.183 31.2549 136.277 31.1429C136.815 31.0882 137.335 31.1303 137.831 31.3389C138.671 31.6919 139.112 32.3585 139.257 33.2254C139.315 33.584 139.31 33.9523 139.334 34.3165ZM135.437 34.3094C135.466 34.6484 135.468 34.9971 135.534 35.3332C135.652 35.9242 136.074 36.2562 136.645 36.259C137.235 36.2632 137.655 35.9425 137.781 35.3388C137.917 34.6834 137.895 34.0167 137.799 33.3585C137.751 33.0224 137.586 32.7297 137.283 32.5392C136.583 32.1022 135.706 32.4804 135.531 33.3123C135.465 33.6344 135.468 33.9719 135.437 34.3094Z" fill="#BDBDBD"/>
<path d="M101.036 37.0874C100.683 37.2107 100.332 37.3591 99.9682 37.4529C99.5268 37.5664 99.0754 37.53 98.6424 37.3885C98.1051 37.2135 97.7651 36.8479 97.6311 36.2989C97.5324 35.8984 97.5239 35.4936 97.6128 35.0931C97.7863 34.3172 98.3589 33.9712 99.0783 33.8326C99.4957 33.7528 99.9273 33.743 100.353 33.7136C100.551 33.6995 100.751 33.7108 100.992 33.7108C100.971 33.4054 100.974 33.1197 100.925 32.8438C100.868 32.5301 100.617 32.3424 100.242 32.3452C99.586 32.3494 98.9316 32.3733 98.2771 32.4083C97.9682 32.4251 97.9203 32.4027 97.9203 32.0974C97.9203 31.9181 97.9217 31.7388 97.9203 31.5596C97.9189 31.4195 97.9823 31.3285 98.122 31.3047C99.1079 31.1338 100.095 30.9909 101.084 31.2696C101.886 31.4965 102.387 32.0988 102.411 32.9251C102.442 34.0217 102.427 35.1183 102.431 36.2149C102.432 36.5202 102.434 36.8269 102.429 37.1322C102.427 37.3647 102.373 37.4165 102.145 37.4193C101.923 37.4221 101.703 37.4207 101.482 37.4193C101.097 37.4179 101.097 37.4179 101.036 37.0874ZM100.975 34.6981C100.587 34.6981 100.232 34.6785 99.8794 34.7023C99.3603 34.7387 99.0825 34.981 99.0416 35.397C99.0275 35.5412 99.0289 35.6897 99.0402 35.8353C99.0613 36.1238 99.2278 36.2933 99.5197 36.3367C99.9922 36.4068 100.438 36.3129 100.86 36.1014C100.909 36.0762 100.97 36.0104 100.97 35.9614C100.978 35.5454 100.975 35.1281 100.975 34.6981Z" fill="#BDBDBD"/>
<path d="M125.407 34.3015C125.431 34.6586 125.428 35.0199 125.483 35.3715C125.58 35.9877 125.952 36.2916 126.576 36.2832C127.003 36.2776 127.431 36.2398 127.858 36.216C128.127 36.2006 128.167 36.237 128.168 36.4961C128.17 36.695 128.187 36.898 128.16 37.0927C128.147 37.1851 128.062 37.3252 127.988 37.342C127.105 37.5353 126.212 37.6473 125.346 37.2818C124.555 36.9485 124.112 36.3028 124.031 35.4835C123.957 34.7146 123.926 33.9219 124.033 33.1615C124.215 31.8716 125.037 31.1881 126.364 31.1293C126.866 31.1069 127.374 31.2035 127.879 31.2511C128.088 31.2707 128.181 31.3912 128.17 31.6027C128.16 31.7889 128.17 31.9752 128.167 32.1615C128.165 32.3814 128.115 32.4304 127.89 32.4192C127.483 32.3982 127.076 32.3702 126.669 32.3463C125.837 32.2973 125.505 32.7875 125.442 33.5004C125.419 33.7637 125.438 34.0312 125.438 34.2973C125.429 34.3001 125.418 34.3015 125.407 34.3015Z" fill="#BDBDBD"/>
<path d="M131.281 31.5718C131.641 31.4374 131.99 31.2959 132.349 31.1769C132.485 31.1307 132.638 31.1279 132.785 31.1195C132.997 31.1069 133.081 31.1853 133.085 31.394C133.089 31.6194 133.089 31.8463 133.086 32.0718C133.084 32.2847 133.027 32.3407 132.808 32.3477C132.354 32.3631 131.924 32.4696 131.511 32.6572C131.375 32.7189 131.33 32.7973 131.33 32.9443C131.336 34.3 131.335 35.6571 131.335 37.0129C131.335 37.3812 131.295 37.4204 130.918 37.4204C130.677 37.4204 130.436 37.4218 130.195 37.4204C129.931 37.419 129.865 37.3532 129.865 37.0885C129.863 35.4863 129.865 33.8841 129.865 32.2819C129.865 32.0158 129.863 31.7497 129.866 31.4836C129.869 31.2749 129.945 31.1979 130.16 31.1951C130.381 31.1909 130.601 31.1937 130.823 31.1937C131.244 31.1951 131.246 31.1951 131.281 31.5718Z" fill="#BDBDBD"/>
<path d="M120.769 34.3204C120.769 33.3904 120.769 32.4605 120.769 31.5291C120.769 31.249 120.824 31.1944 121.111 31.193C121.386 31.1916 121.66 31.1902 121.935 31.193C122.152 31.1958 122.224 31.2673 122.224 31.4815C122.226 33.3624 122.226 35.2419 122.224 37.1228C122.224 37.3427 122.155 37.4141 121.941 37.4169C121.646 37.4211 121.351 37.4197 121.058 37.4169C120.833 37.4141 120.773 37.3553 120.771 37.1298C120.769 36.1943 120.769 35.2573 120.769 34.3204Z" fill="#BDBDBD"/>
<path d="M121.475 30.3557C121.314 30.3557 121.155 30.3543 120.994 30.3557C120.824 30.3571 120.732 30.2772 120.732 30.1036C120.732 29.8053 120.733 29.507 120.732 29.2086C120.732 29.0336 120.825 28.9552 120.993 28.9552C121.333 28.9538 121.674 28.9538 122.014 28.9552C122.168 28.9552 122.252 29.0406 122.255 29.1876C122.261 29.4986 122.261 29.8109 122.255 30.1218C122.252 30.2688 122.171 30.3543 122.014 30.3529C121.836 30.3543 121.656 30.3543 121.475 30.3557C121.475 30.3543 121.475 30.3557 121.475 30.3557Z" fill="#BDBDBD"/>
<path d="M19.8265 12.7758C19.8265 14.3072 19.6453 15.5554 19.2829 16.5204C18.9418 17.4644 18.3981 18.1882 17.652 18.6917C16.9271 19.1952 15.9998 19.5413 14.8699 19.7301C13.74 19.8979 12.3862 19.9818 10.8086 19.9818C9.84929 19.9818 8.93258 19.9818 8.05851 19.9818C7.18444 19.9818 6.36366 19.9713 5.59619 19.9504C4.82871 19.9504 4.10387 19.9504 3.42167 19.9504C2.76079 19.9504 2.14254 19.9504 1.56693 19.9504V7.55219C1.56693 6.81795 1.71616 6.29349 2.01463 5.97882C2.31309 5.66414 2.86738 5.49632 3.67749 5.47534C4.23178 5.47534 4.82871 5.47534 5.46827 5.47534C6.12916 5.45436 6.79004 5.44387 7.45092 5.44387C8.13313 5.44387 8.80467 5.44387 9.46555 5.44387C10.1478 5.44387 10.7767 5.44387 11.3523 5.44387C12.8659 5.46485 14.1557 5.58023 15.2216 5.79001C16.2876 5.97882 17.1616 6.33545 17.8438 6.85991C18.526 7.36339 19.027 8.09763 19.3468 9.06263C19.6666 10.0067 19.8265 11.2444 19.8265 12.7758ZM6.81136 17.3386C7.02455 17.3386 7.26971 17.3386 7.54686 17.3386C7.84532 17.3386 8.15444 17.3491 8.47423 17.37C8.81533 17.37 9.14577 17.37 9.46555 17.37C9.78533 17.37 10.0625 17.37 10.297 17.37C11.0431 17.37 11.6827 17.3071 12.2157 17.1812C12.7486 17.0554 13.175 16.8246 13.4948 16.4889C13.8146 16.1533 14.0491 15.6813 14.1983 15.0729C14.3476 14.4645 14.4222 13.6988 14.4222 12.7758C14.4222 11.4542 14.2836 10.4577 14.0065 9.78638C13.7506 9.11507 13.3136 8.66404 12.6953 8.43328C12.0984 8.18154 11.2563 8.05567 10.1691 8.05567C9.91325 8.05567 9.5828 8.05567 9.17775 8.05567C8.79401 8.05567 8.41027 8.06616 8.02653 8.08714C7.64279 8.08714 7.31235 8.09763 7.03521 8.1186C6.97125 8.2235 6.91795 8.34937 6.87532 8.49621C6.83268 8.64306 6.81136 8.85285 6.81136 9.12556V17.3386ZM0 12.1779H10.4569V13.6883H0V12.1779Z" fill="#213B94"/>
<path d="M20.8913 19.9504L25.9758 7.9298C26.3169 7.11165 26.8072 6.4823 27.4468 6.04175C28.0864 5.58023 29.0883 5.34947 30.4527 5.34947C31.5826 5.34947 32.4994 5.55925 33.2029 5.97882C33.9064 6.39838 34.4394 7.04871 34.8018 7.9298L39.9183 19.9504H34.2262L32.8511 16.7092H26.1996L24.9205 19.9504H20.8913ZM27.0311 14.7268H31.8918L30.1649 10.3213C30.101 10.1535 30.0264 10.0067 29.9411 9.88078C29.8558 9.73393 29.7066 9.66051 29.4934 9.66051C29.2589 9.66051 29.0883 9.73393 28.9817 9.88078C28.8965 10.0067 28.8219 10.1535 28.7579 10.3213L27.0311 14.7268ZM30.4208 3.58729C29.5467 3.58729 28.8219 3.51387 28.2463 3.36702C27.6706 3.22017 27.2443 2.90549 26.9671 2.42299C26.69 1.91951 26.5514 1.19576 26.5514 0.251738V0H28.3742V0.188805C28.3742 0.482501 28.4168 0.765707 28.5021 1.03843C28.6087 1.29016 28.8005 1.48946 29.0777 1.63631C29.3761 1.78315 29.8132 1.85658 30.3888 1.85658C30.9857 1.85658 31.4228 1.78315 31.6999 1.63631C31.9984 1.48946 32.1902 1.29016 32.2755 1.03843C32.3821 0.786685 32.4354 0.503479 32.4354 0.188805V0H34.2262V0.251738C34.2262 1.19576 34.0876 1.90903 33.8105 2.39153C33.5546 2.87403 33.1389 3.19919 32.5633 3.36702C32.009 3.51387 31.2948 3.58729 30.4208 3.58729Z" fill="#213B94"/>
<path d="M42.1368 19.9504V7.23752C42.1368 6.50327 42.2434 6.03126 42.4566 5.82148C42.6698 5.59072 43.1707 5.47534 43.9595 5.47534H48.9162L55.8874 14.7268L56.0793 15.4505V5.47534H59.9167C59.874 5.51729 59.8421 5.65365 59.8207 5.88441C59.8207 6.0942 59.8207 6.33545 59.8207 6.60817C59.8207 6.85991 59.8207 7.09067 59.8207 7.30045V18.4085C59.8207 19.1007 59.6715 19.5308 59.373 19.6986C59.0746 19.8665 58.5203 19.9504 57.7102 19.9504H53.2012L46.0701 10.5101L45.9102 9.72345V19.9504H42.1368Z" fill="#213B94"/>
<path d="M72.1923 20.1077C70.5081 20.1077 69.0691 20.0133 67.8752 19.8245C66.6814 19.6147 65.7007 19.2476 64.9333 18.7231C64.1871 18.1777 63.6328 17.433 63.2704 16.4889C62.9293 15.5239 62.7587 14.2862 62.7587 12.7758C62.7587 11.1395 62.9826 9.82834 63.4303 8.84236C63.8993 7.8354 64.5495 7.08018 65.3809 6.5767C66.2337 6.07322 67.2463 5.73757 68.4189 5.56974C69.5914 5.40191 70.8812 5.318 72.2882 5.318C73.8445 5.318 75.2196 5.34947 76.4134 5.4124C77.6073 5.45436 78.492 5.53827 79.0676 5.66414C79.6645 5.76903 80.0909 5.93686 80.3467 6.16762C80.6026 6.37741 80.7625 6.61866 80.8264 6.89137C80.9117 7.16409 80.9543 7.43681 80.9543 7.70953V8.93676C80.8264 8.76893 80.5173 8.63258 80.027 8.52768C79.5366 8.42279 78.961 8.33888 78.3001 8.27594C77.6606 8.19203 76.9997 8.12909 76.3175 8.08714C75.6353 8.04518 75.0064 8.0242 74.4308 8.0242C73.8765 8.00322 73.4501 7.99273 73.1516 7.99273C71.9152 7.99273 70.9345 8.1186 70.2096 8.37034C69.4848 8.60111 68.9518 9.06263 68.6107 9.75491C68.291 10.4262 68.1311 11.4332 68.1311 12.7758C68.1311 14.0345 68.2803 14.9995 68.5788 15.6708C68.8985 16.3211 69.3782 16.7722 70.0178 17.0239C70.6573 17.2756 71.4888 17.4015 72.5121 17.4015C73.5141 17.4015 74.2922 17.3281 74.8465 17.1812C75.4221 17.0134 75.8272 16.7302 76.0617 16.3316C76.2962 15.933 76.4241 15.4086 76.4454 14.7582C76.4454 14.5694 76.4454 14.4121 76.4454 14.2862C76.4454 14.1394 76.4454 14.024 76.4454 13.9401H71.0091C71.0091 13.2478 71.0517 12.7129 71.137 12.3352C71.2223 11.9367 71.4248 11.6534 71.7446 11.4856C72.0857 11.3178 72.6293 11.2339 73.3755 11.2339H81.5299L81.498 14.6953C81.498 15.6813 81.37 16.5204 81.1142 17.2127C80.8797 17.905 80.4214 18.4609 79.7392 18.8805C79.0783 19.3 78.1296 19.6147 76.8931 19.8245C75.6779 20.0133 74.111 20.1077 72.1923 20.1077Z" fill="#213B94"/>
<path d="M92.0728 5.47534H109.725V8.21301H103.553V18.2511C103.553 18.9224 103.446 19.3735 103.233 19.6042C103.02 19.835 102.54 19.9504 101.794 19.9504H98.2765V8.21301H92.0728V5.47534Z" fill="#213B94"/>
<path d="M112.152 19.9504C112.152 17.8106 112.152 15.6708 112.152 13.531C112.152 11.3912 112.152 9.25143 112.152 7.11165C112.152 6.75501 112.173 6.46132 112.216 6.23056C112.279 5.97882 112.429 5.79001 112.663 5.66414C112.919 5.53827 113.324 5.47534 113.878 5.47534H117.396V19.9504H112.152Z" fill="#213B94"/>
<path d="M121.145 19.9504V7.23752C121.145 6.50327 121.252 6.03126 121.465 5.82148C121.678 5.59072 122.179 5.47534 122.968 5.47534H127.925L134.896 14.7268L135.088 15.4505V5.47534H138.925C138.883 5.51729 138.851 5.65365 138.829 5.88441C138.829 6.0942 138.829 6.33545 138.829 6.60817C138.829 6.85991 138.829 7.09067 138.829 7.30045V18.4085C138.829 19.1007 138.68 19.5308 138.382 19.6986C138.083 19.8665 137.529 19.9504 136.719 19.9504H132.21L125.079 10.5101L124.919 9.72345V19.9504H121.145Z" fill="#213B94"/>
<line x1="110.268" y1="11.9659" x2="119.711" y2="6.69051" stroke="white" stroke-width="3"/>
</svg>
