<?xml version="1.0" encoding="utf-8"?><svg xmlns="http://www.w3.org/2000/svg" xmlns:xlink="http://www.w3.org/1999/xlink"><symbol viewBox="0 0 11 7" id="Vector" xmlns="http://www.w3.org/2000/svg"><path d="M10.754 1.726L9.574.546l-3.82 3.822L1.934.547.753 1.726l5 5 5-5z"/></symbol><symbol viewBox="0 0 64 64" id="alert-circle-lg" xmlns="http://www.w3.org/2000/svg"><path d="M28.616 3.581C18.366 4.823 9.582 11.45 5.606 20.94c-2.94 7.017-2.94 15.103 0 22.12A28.711 28.711 0 0020.94 58.394c7.014 2.939 15.106 2.939 22.12 0A28.751 28.751 0 0058.394 43.06c2.939-7.014 2.939-15.106 0-22.12-3.61-8.617-11.4-15.069-20.446-16.932-2.864-.59-6.581-.76-9.332-.427m7.011 4.002c9.688 1.372 17.752 8.598 20.275 18.168 1.054 3.998 1.029 8.712-.066 12.709-2.61 9.528-10.489 16.517-20.263 17.976-1.918.287-4.96.31-6.826.052C17.629 54.951 9.058 46.38 7.511 35.253c-.237-1.707-.237-4.799 0-6.506 1.144-8.225 6.229-15.31 13.56-18.891 4.612-2.253 9.409-3.002 14.556-2.273m-4.686 12.012a2.026 2.026 0 00-.587.493c-.216.295-.221.421-.249 6.453-.025 5.698-.014 6.179.16 6.518.337.655.665.808 1.735.808 1.071 0 1.4-.154 1.733-.808.171-.335.187-.865.187-6.392 0-6.65.017-6.472-.674-6.979-.425-.312-1.784-.367-2.305-.093m0 21.333c-.657.345-.808.669-.808 1.739 0 1.069.151 1.393.808 1.738.525.276 1.882.219 2.305-.097.512-.381.705-.831.705-1.641s-.193-1.261-.705-1.642c-.423-.315-1.78-.373-2.305-.097" fill-rule="evenodd"/></symbol><symbol viewBox="0 0 16 16" id="alert-triangle" xmlns="http://www.w3.org/2000/svg"><path d="M7.667.961a2.37 2.37 0 00-1.533.919c-.109.148-5.712 9.492-5.823 9.711-.186.368-.26.676-.26 1.076 0 .422.07.708.269 1.09.319.613.894 1.039 1.608 1.191.274.058 11.87.058 12.144 0 .744-.158 1.309-.592 1.637-1.255.147-.298.209-.514.235-.819a2.254 2.254 0 00-.206-1.177c-.101-.216-5.579-9.382-5.819-9.737A2.296 2.296 0 008.093.947c-.146-.006-.338 0-.426.014m.507 2.022c.062.038.738 1.146 2.929 4.805 1.583 2.641 2.855 4.793 2.862 4.84.022.131-.056.266-.189.331-.113.054-.127.054-5.776.054s-5.663 0-5.776-.054c-.133-.065-.211-.2-.189-.331.007-.047 1.279-2.199 2.862-4.84 2.191-3.659 2.867-4.767 2.929-4.805A.396.396 0 018 2.934c.051 0 .13.022.174.049m-.613 2.095a.731.731 0 00-.492.507c-.054.175-.056.233-.056 1.748 0 1.52.002 1.574.057 1.751a.742.742 0 00.513.513c.247.076.586.076.832.001a.763.763 0 00.516-.517c.054-.174.056-.233.056-1.748 0-1.514-.002-1.574-.056-1.748a.764.764 0 00-.516-.516 1.513 1.513 0 00-.854.009m.015 5.324a.78.78 0 00-.507.517c-.076.245-.076.584.001.832a.634.634 0 00.193.32c.114.113.17.147.332.196.164.05.236.057.466.046.313-.015.42-.043.579-.15.235-.158.35-.432.35-.83 0-.398-.115-.672-.35-.829-.164-.11-.269-.136-.6-.147-.243-.008-.323-.001-.464.045" fill-rule="evenodd"/></symbol><symbol viewBox="0 0 24 24" id="arrow-decreasing" xmlns="http://www.w3.org/2000/svg"><path fill-rule="evenodd" clip-rule="evenodd" d="M12.682 15.588L21 18l-2.07-8.41-2.583 2.48-4.166-4.34a.75.75 0 00-1.082 0L8.04 10.918 3.541 6.231a.75.75 0 10-1.082 1.038l5.04 5.25a.75.75 0 001.082 0l3.059-3.186 3.625 3.776-2.583 2.48z"/></symbol><symbol viewBox="0 0 14 13" id="arrow-right" xmlns="http://www.w3.org/2000/svg"><g clip-path="url(#aea)"><path fill-rule="evenodd" clip-rule="evenodd" d="M7.827 2.47a.75.75 0 011.06 0l4 4a.75.75 0 010 1.06l-4 4a.75.75 0 01-1.06-1.06l2.72-2.72H1.5a.75.75 0 010-1.5h9.046l-2.72-2.72a.75.75 0 010-1.06z"/></g><defs><clipPath id="aea"><path transform="translate(.5)" d="M0 0h13v13H0z"/></clipPath></defs></symbol><symbol viewBox="0 0 24 24" id="arrow-right-circle" xmlns="http://www.w3.org/2000/svg"><path d="M12.13 2h-.26C6.43 2 2 6.43 2 11.87v.26C2 17.57 6.43 22 11.87 22h.26c5.44 0 9.87-4.43 9.87-9.87v-.26C22 6.43 17.57 2 12.13 2zm3.49 10.53L13.16 15c-.15.14-.34.22-.53.22s-.39-.08-.53-.22c-.3-.3-.3-.77 0-1.06l1.18-1.19H8.91a.749.749 0 110-1.5h4.37l-1.18-1.19c-.3-.29-.3-.76 0-1.06.29-.29.76-.29 1.06 0l2.46 2.47c.3.29.3.77 0 1.06z"/></symbol><symbol viewBox="0 0 24 24" id="arrow-rise" xmlns="http://www.w3.org/2000/svg"><path fill-rule="evenodd" clip-rule="evenodd" d="M12.682 8.412L21 6l-2.07 8.41-2.583-2.48-4.166 4.34a.75.75 0 01-1.082 0L8.04 13.082l-4.499 4.686a.75.75 0 11-1.082-1.038l5.04-5.25a.75.75 0 011.082 0l3.059 3.186 3.625-3.776-2.583-2.48z"/></symbol><symbol stroke-width="2" stroke-linecap="round" stroke-linejoin="round" class="ahfeather ahfeather-paperclip" viewBox="0 0 24 24" id="attachment" xmlns="http://www.w3.org/2000/svg"><path d="M14.94.464a5.18 5.18 0 00-2.211.976c-.209.163-2.305 2.232-5.233 5.166-5.29 5.3-5.175 5.176-5.671 6.115a7.387 7.387 0 00-.751 2.259c-.066.412-.066 1.627 0 2.04.379 2.351 1.834 4.305 3.946 5.302a6.966 6.966 0 006.259-.147c.94-.497.813-.379 6.126-5.685 3.512-3.508 4.93-4.948 4.993-5.075.175-.351.084-.728-.257-1.064-.355-.349-.697-.435-1.058-.265-.14.066-1.333 1.233-5.083 4.974-5.166 5.153-5.081 5.074-5.795 5.421a4.779 4.779 0 01-2.025.505c-2.177.092-4.202-1.304-4.906-3.383a5.025 5.025 0 01.737-4.609c.127-.17 2.298-2.367 5.135-5.198l4.914-4.904.38-.184a3.02 3.02 0 012.68.002c.324.158.436.241.764.568.327.326.41.438.57.762.228.461.304.804.305 1.364.001.704-.183 1.263-.594 1.798-.324.423-9.558 9.613-9.743 9.698a.99.99 0 01-1.411-.82c-.045-.49-.35-.15 4.53-5.04 3.011-3.017 4.438-4.473 4.495-4.588a.793.793 0 00-.012-.725 1.643 1.643 0 00-.589-.591c-.184-.097-.531-.097-.735 0-.184.088-8.676 8.534-9.06 9.011-.413.513-.595 1.004-.629 1.697-.028.561.055.976.289 1.456a3.062 3.062 0 001.839 1.576c.416.127 1.211.141 1.619.029.33-.091.693-.259.927-.43.102-.074 2.363-2.304 5.026-4.955 3.377-3.362 4.913-4.918 5.079-5.145a5.012 5.012 0 00.699-4.654 4.845 4.845 0 00-1.149-1.824C18.358.905 17.124.393 15.743.404a6.033 6.033 0 00-.803.06" fill-rule="evenodd"/></symbol><symbol viewBox="0 0 16 16" id="calendar" xmlns="http://www.w3.org/2000/svg"><path d="M13.6 1.6H12V.8a.8.8 0 00-1.6 0v.8H5.6V.8A.8.8 0 004 .8v.8H2.4A2.4 2.4 0 000 4v9.6A2.4 2.4 0 002.4 16h11.2a2.4 2.4 0 002.4-2.4V4a2.4 2.4 0 00-2.4-2.4zm.8 12a.8.8 0 01-.8.8H2.4a.8.8 0 01-.8-.8V8h12.8v5.6zm0-7.2H1.6V4a.8.8 0 01.8-.8H4V4a.8.8 0 001.6 0v-.8h4.8V4A.8.8 0 0012 4v-.8h1.6a.8.8 0 01.8.8v2.4z"/></symbol><symbol viewBox="0 0 24 24" id="checkmark-circle" xmlns="http://www.w3.org/2000/svg"><path d="M12 2C6.49 2 2 6.49 2 12s4.49 10 10 10 10-4.49 10-10S17.51 2 12 2zm3.59 8.59l-3.52 3.52c-.15.15-.34.22-.53.22s-.39-.07-.53-.22l-1.76-1.76c-.3-.29-.3-.77 0-1.06.29-.29.77-.29 1.06 0l1.23 1.23 2.99-2.99c.29-.29.76-.29 1.06 0 .29.29.29.77 0 1.06z"/></symbol><symbol viewBox="0 0 24 24" id="chevron-right" xmlns="http://www.w3.org/2000/svg"><path fill-rule="evenodd" clip-rule="evenodd" d="M8.293 5.293a1 1 0 011.414 0l6 6a1 1 0 010 1.414l-6 6a1 1 0 01-1.414-1.414L13.586 12 8.293 6.707a1 1 0 010-1.414z"/></symbol><symbol viewBox="0 0 16 16" id="close" xmlns="http://www.w3.org/2000/svg"><path fill-rule="evenodd" clip-rule="evenodd" d="M12.707 3.293a1 1 0 010 1.414l-8 8a1 1 0 01-1.414-1.414l8-8a1 1 0 011.414 0z"/><path fill-rule="evenodd" clip-rule="evenodd" d="M3.293 3.293a1 1 0 011.414 0l8 8a1 1 0 01-1.414 1.414l-8-8a1 1 0 010-1.414z"/></symbol><symbol viewBox="0 0 20 20" id="close-circle" xmlns="http://www.w3.org/2000/svg"><path d="M10 18.333a8.333 8.333 0 110-16.667 8.333 8.333 0 010 16.667zm0-9.512L7.643 6.464 6.464 7.643 8.821 10l-2.357 2.357 1.179 1.178L10 11.178l2.357 2.357 1.179-1.178L11.178 10l2.357-2.357-1.179-1.179L10 8.821z"/></symbol><symbol viewBox="0 0 16 16" id="confirm" xmlns="http://www.w3.org/2000/svg"><path d="M14.732 3.296a.999.999 0 00-1.42 0l-7.45 7.46-3.13-3.14a1.022 1.022 0 10-1.42 1.47l3.84 3.84a1.001 1.001 0 001.42 0l8.16-8.16a1 1 0 000-1.47z"/></symbol><symbol viewBox="0 0 24 24" id="contact-support" xmlns="http://www.w3.org/2000/svg"><path d="M12.125 23.5l-.281-3.375h-.281c-2.663 0-4.922-.928-6.779-2.784C2.928 15.484 2 13.225 2 10.562c0-2.662.928-4.921 2.784-6.778C6.641 1.928 8.9 1 11.563 1c1.33 0 2.573.248 3.726.745a9.675 9.675 0 013.038 2.053 9.663 9.663 0 012.052 3.037c.497 1.154.746 2.396.746 3.728 0 1.406-.23 2.756-.689 4.05a14.36 14.36 0 01-1.884 3.6 15.958 15.958 0 01-2.84 3.009c-1.098.9-2.293 1.66-3.587 2.278zm-.59-6.778c.318 0 .59-.113.815-.338.225-.225.338-.497.338-.815 0-.319-.113-.59-.338-.816a1.111 1.111 0 00-.816-.337c-.318 0-.59.112-.815.337a1.111 1.111 0 00-.338.816c0 .318.113.59.338.815.225.225.497.338.815.338zm-.816-3.572h1.687c0-.563.056-.956.169-1.181.113-.225.469-.638 1.069-1.238.337-.337.618-.703.844-1.097a2.51 2.51 0 00.337-1.265c0-.957-.323-1.674-.97-2.152-.647-.478-1.411-.717-2.293-.717-.824 0-1.518.23-2.08.689A3.669 3.669 0 008.3 7.862l1.575.62a2.61 2.61 0 01.534-.943c.263-.31.647-.464 1.153-.464.507 0 .887.14 1.14.422.253.281.38.59.38.928 0 .319-.095.604-.282.857a6.94 6.94 0 01-.675.774c-.656.563-1.055 1.008-1.195 1.336-.14.328-.211.914-.211 1.758z"/></symbol><symbol viewBox="0 0 24 24" id="download" xmlns="http://www.w3.org/2000/svg"><path fill-rule="evenodd" clip-rule="evenodd" d="M3 14a1 1 0 011 1v4a1 1 0 001 1h14a1 1 0 001-1v-4a1 1 0 112 0v4a3 3 0 01-3 3H5a3 3 0 01-3-3v-4a1 1 0 011-1z"/><path fill-rule="evenodd" clip-rule="evenodd" d="M6.293 9.293a1 1 0 011.414 0L12 13.586l4.293-4.293a1 1 0 111.414 1.414l-5 5a1 1 0 01-1.414 0l-5-5a1 1 0 010-1.414z"/><path fill-rule="evenodd" clip-rule="evenodd" d="M12 2a1 1 0 011 1v12a1 1 0 11-2 0V3a1 1 0 011-1z"/></symbol><symbol viewBox="0 0 16 12" id="ds-booking" xmlns="http://www.w3.org/2000/svg"><path d="M.8 1.997h14.4a.8.8 0 100-1.6H.8a.8.8 0 000 1.6zm4.8 6.4H.8a.8.8 0 000 1.6h4.8a.8.8 0 100-1.6zm7.6-4H.8a.8.8 0 000 1.6h12.4a1.2 1.2 0 110 2.4h-2.472l.24-.232A.803.803 0 009.832 7.03l-1.6 1.6a.8.8 0 00-.168.264.8.8 0 000 .608.8.8 0 00.168.264l1.6 1.6a.801.801 0 001.311-.26.8.8 0 00-.175-.876l-.24-.232H13.2a2.8 2.8 0 000-5.6z"/></symbol><symbol viewBox="0 0 20 20" id="edit" xmlns="http://www.w3.org/2000/svg"><g clip-path="url(#ara)" fill-rule="evenodd" clip-rule="evenodd"><path d="M1.566 3.232A2.5 2.5 0 013.333 2.5h5.834a.833.833 0 010 1.667H3.333A.833.833 0 002.5 5v11.667a.833.833 0 00.833.833H15a.833.833 0 00.833-.833v-5.834a.833.833 0 011.667 0v5.834a2.5 2.5 0 01-2.5 2.5H3.333a2.5 2.5 0 01-2.5-2.5V5a2.5 2.5 0 01.733-1.768z"/><path d="M16.667 2.399a.935.935 0 00-.661.274l-7.754 7.753-.44 1.762 1.762-.44 7.753-7.754a.935.935 0 00-.66-1.595zm-1.84-.905a2.601 2.601 0 013.679 3.679l-7.917 7.916a.833.833 0 01-.387.22l-3.333.833a.833.833 0 01-1.01-1.01l.833-3.334a.833.833 0 01.219-.387l7.916-7.917z"/></g><defs><clipPath id="ara"><path d="M0 0h20v20H0z"/></clipPath></defs></symbol><symbol viewBox="0 0 18 18" id="edit-2" xmlns="http://www.w3.org/2000/svg"><path fill-rule="evenodd" clip-rule="evenodd" d="M8.5 15a.5.5 0 01.5-.5h6.75a.5.5 0 010 1H9a.5.5 0 01-.5-.5zm5-12.341c-.29 0-.567.115-.771.32L3.45 12.256l-.514 2.057 2.057-.514 9.277-9.278a1.092 1.092 0 00-.77-1.861zm-1.479-.388A2.09 2.09 0 1114.98 5.23l-9.375 9.375a.5.5 0 01-.233.131l-3 .75a.5.5 0 01-.606-.606l.75-3a.5.5 0 01.131-.233l9.376-9.375z"/><path fill-rule="evenodd" clip-rule="evenodd" d="M11.646 7.354l-2-2 .708-.708 2 2-.707.708z"/></symbol><symbol viewBox="0 0 22 22" id="error" xmlns="http://www.w3.org/2000/svg"><path fill-rule="evenodd" clip-rule="evenodd" d="M11 2a9 9 0 100 18 9 9 0 000-18zM0 11C0 4.925 4.925 0 11 0s11 4.925 11 11-4.925 11-11 11S0 17.075 0 11z"/><path fill-rule="evenodd" clip-rule="evenodd" d="M14.707 7.293a1 1 0 010 1.414l-6 6a1 1 0 01-1.414-1.414l6-6a1 1 0 011.414 0z"/><path fill-rule="evenodd" clip-rule="evenodd" d="M7.293 7.293a1 1 0 011.414 0l6 6a1 1 0 01-1.414 1.414l-6-6a1 1 0 010-1.414z"/></symbol><symbol viewBox="0 0 16 16" id="export" xmlns="http://www.w3.org/2000/svg"><path d="M5.806 5.14l1.527-1.533V10a.667.667 0 001.333 0V3.607l1.527 1.533a.666.666 0 001.093-.217.668.668 0 00-.146-.73L8.473 1.528a.667.667 0 00-.22-.14.667.667 0 00-.507 0 .667.667 0 00-.22.14L4.86 4.194a.67.67 0 00.946.946zM14 9.334a.667.667 0 00-.667.666v2.667a.666.666 0 01-.667.667H3.333a.666.666 0 01-.667-.667V10a.667.667 0 10-1.333 0v2.667a2 2 0 002 2h9.333a2 2 0 002-2V10A.667.667 0 0014 9.334z"/><path fill-rule="evenodd" clip-rule="evenodd" d="M7.333 3.607V10a.667.667 0 001.333 0V3.607l1.527 1.533a.666.666 0 001.093-.217.668.668 0 00-.146-.73L8.473 1.528a.667.667 0 00-.311-.17.667.667 0 00-.496.067.667.667 0 00-.14.103L4.86 4.194a.67.67 0 00.946.946l1.527-1.533zm3.569.828zm2.626 5.094a.667.667 0 011.138.471v2.667a2 2 0 01-2 2H3.333a2 2 0 01-2-2V10a.667.667 0 111.333 0v2.667a.667.667 0 00.667.667h9.333a.666.666 0 00.667-.667V10c0-.177.07-.346.195-.471z"/></symbol><symbol viewBox="0 0 20 20" id="eye-fill" xmlns="http://www.w3.org/2000/svg"><path d="M.984 10a9.169 9.169 0 0118.031 0A9.169 9.169 0 01.984 10zM10 14.167a4.167 4.167 0 100-8.334 4.167 4.167 0 000 8.334zm0-1.667a2.5 2.5 0 110-5 2.5 2.5 0 010 5z"/></symbol><symbol viewBox="0 0 16 16" id="eye-off" xmlns="http://www.w3.org/2000/svg"><g clip-path="url(#awa)" fill-rule="evenodd" clip-rule="evenodd"><path d="M7.998 3.333a5.413 5.413 0 00-1.246.143.667.667 0 11-.304-1.298A6.746 6.746 0 018.001 2L8 2.667V2c2.6 0 4.597 1.484 5.903 2.877a13.784 13.784 0 011.888 2.567 8.115 8.115 0 01.127.236l.008.015.002.004.001.002-.596.299-.588-.314c-.056.105-.114.21-.173.313a12.447 12.447 0 00-1.642-2.21C11.736 4.516 10.067 3.333 8 3.333h-.002zM14.572 8a11.66 11.66 0 01-1.189 1.698.667.667 0 001.02.859 13.001 13.001 0 001.518-2.242.667.667 0 00.009-.612L15.333 8l-.596.299v-.001l-.004-.008a6.966 6.966 0 00-.16-.291zM3.635 3.51a.667.667 0 01.876.059l2.544 2.544a.507.507 0 01.005.004L9.883 8.94a.696.696 0 01.004.005l2.544 2.544a.667.667 0 01-.067 1.001A7.38 7.38 0 018.011 14H8c-2.6 0-4.597-1.484-5.903-2.877A13.781 13.781 0 01.209 8.556a8.23 8.23 0 01-.127-.236l-.008-.015-.002-.004-.001-.002L.667 8l-.597.298a.667.667 0 01.01-.613A12.967 12.967 0 013.634 3.51zM1.428 8.002a12.45 12.45 0 001.641 2.209c1.194 1.272 2.861 2.454 4.926 2.456a6.047 6.047 0 002.92-.81L9.366 10.31a2.664 2.664 0 01-3.303-.373 2.667 2.667 0 01-.373-3.302l-1.7-1.7a11.633 11.633 0 00-2.563 3.068zm5.257-.374a1.333 1.333 0 001.687 1.687L6.685 7.628z"/><path d="M.195.195c.26-.26.683-.26.943 0l14.667 14.667a.667.667 0 11-.943.943L.195 1.138a.667.667 0 010-.943z"/></g><defs><clipPath id="awa"><path d="M0 0h16v16H0z"/></clipPath></defs></symbol><symbol viewBox="0 0 12 12" id="file" xmlns="http://www.w3.org/2000/svg"><path d="M2.742.523a1.689 1.689 0 00-.499.181 2.298 2.298 0 00-.539.539 1.632 1.632 0 00-.183.517c-.029.181-.029 8.299 0 8.48.053.327.173.554.429.81s.483.376.81.429c.18.029 6.3.029 6.48 0 .327-.053.554-.173.81-.429s.376-.483.429-.81c.014-.086.021-1.087.021-2.981 0-3.177.008-2.997-.134-3.124A642.003 642.003 0 016.865.634C6.741.495 6.813.5 4.721.502a61.795 61.795 0 00-1.979.021M6 3.047c0 1.65 0 1.653.098 1.79a.417.417 0 00.137.106l.095.047 1.585.006 1.585.005v2.555c-.001 2.428-.003 2.558-.037 2.634a.506.506 0 01-.247.258l-.104.052H6.001c-3.087-.001-3.112-.001-3.201-.042a.467.467 0 01-.252-.248l-.048-.1L2.501 6c0-4.092 0-4.11.041-4.2a.467.467 0 01.248-.252l.1-.048H6v1.547m1.9.063l.89.89H7v-.89c0-.49.002-.89.005-.89s.406.4.895.89" fill-rule="evenodd"/></symbol><symbol viewBox="0 0 16 16" id="grid" xmlns="http://www.w3.org/2000/svg"><path d="M6.667 8.667H2a.667.667 0 00-.667.667V14a.667.667 0 00.667.667h4.667A.667.667 0 007.334 14V9.334a.667.667 0 00-.667-.667zM6 13.334H2.667V10H6v3.334zm8-12H9.334A.667.667 0 008.667 2v4.667a.667.667 0 00.667.667H14a.667.667 0 00.667-.667V2A.667.667 0 0014 1.333zM13.334 6H10V2.667h3.334V6zM14 8.667H9.334a.667.667 0 00-.667.667V14a.667.667 0 00.667.667H14a.667.667 0 00.667-.667V9.334A.667.667 0 0014 8.667zm-.666 4.667H10V10h3.334v3.334zm-6.667-12H2A.667.667 0 001.333 2v4.667A.667.667 0 002 7.334h4.667a.667.667 0 00.667-.667V2a.667.667 0 00-.667-.667zM6 6H2.667V2.667H6V6z"/></symbol><symbol viewBox="0 0 24 24" id="hourglass" xmlns="http://www.w3.org/2000/svg"><path d="M15.88 9.13l-1.52 1.5H9.64l-.75-.75-.76-.75h2.13l.76.75.06.06c.51.51 1.34.51 1.85 0l.06-.06.76-.75h2.13z"/><path d="M19.19 2H4.81a.749.749 0 100 1.5h1.63c-.2.39-.33.82-.33 1.29v1.19c0 .74.29 1.45.83 1.97l1.19 1.18.76.75 1.13 1.13c.55.54 1.26.81 1.98.81s1.44-.27 1.98-.81l.38-.38 1.52-1.5 1.19-1.18c.53-.53.82-1.23.82-1.97V4.79c0-.47-.13-.9-.33-1.29h1.63a.749.749 0 100-1.5zm-6.2 7.88l-.06.06c-.51.51-1.34.51-1.85 0l-.06-.06-.76-.75h3.49l-.76.75zm6.94 11.32a.737.737 0 00-.74-.7h-1.63c.21-.39.33-.84.33-1.31v-1.2c0-.74-.3-1.46-.82-1.98l-3.09-3.09a2.807 2.807 0 00-3.96 0l-3.09 3.09c-.52.52-.82 1.24-.82 1.98v1.2c0 .47.12.92.33 1.31H4.81c-.4 0-.72.31-.74.7a.09.09 0 00-.01.05c0 .41.33.75.75.75h14.38c.42 0 .75-.34.75-.75 0-.02 0-.03-.01-.05zm-8.62-5.38c.04-.09.09-.17.16-.24.2-.21.54-.27.82-.16.09.04.17.09.24.16a.776.776 0 01.22.53.75.75 0 11-1.44-.29zM8.92 20.5c-.72 0-1.31-.59-1.31-1.31h8.78c0 .72-.59 1.31-1.31 1.31H8.92z"/></symbol><symbol viewBox="0 0 24 24" id="link" xmlns="http://www.w3.org/2000/svg"><path fill-rule="evenodd" clip-rule="evenodd" d="M12.775 2.75a6 6 0 018.484 8.485l-.012.012-3 3a5.999 5.999 0 01-9.048-.648 1 1 0 111.602-1.198 3.999 3.999 0 006.032.432l2.993-2.994a4 4 0 00-5.656-5.655L12.455 5.89a1 1 0 11-1.41-1.418l1.72-1.71.01-.01z"/><path fill-rule="evenodd" clip-rule="evenodd" d="M7.9 8.373a6 6 0 016.9 2.028 1 1 0 01-1.6 1.198 4 4 0 00-6.033-.432l-2.993 2.994a4 4 0 005.655 5.655l1.704-1.703a1 1 0 111.414 1.414l-1.71 1.71-.012.012a6 6 0 01-8.484-8.484l.012-.012 3-3a6 6 0 012.146-1.38z"/></symbol><symbol viewBox="0 0 24 24" id="login" xmlns="http://www.w3.org/2000/svg"><path d="M15.77 10a1.74 1.74 0 000-2.46 1.13 1.13 0 00-.27-.22 1.66 1.66 0 00-1-.3c-.46 0-.9.18-1.23.5L10 10.81a1.81 1.81 0 00-.49 1.35c.02.421.194.82.49 1.12l3.28 3.26a1.7 1.7 0 001.23.51 1.73 1.73 0 001-.29 1.76 1.76 0 00.27-2.7l-.27-.26H17v4.65A3.75 3.75 0 0113.13 22H5.88A3.76 3.76 0 012 18.44V5.64A3.76 3.76 0 015.88 2h7.25A3.75 3.75 0 0117 5.64v4.65h-1.5l.27-.29z"/><path d="M22 12a.76.76 0 01-.75.75h-8.18l2 2A.76.76 0 0114 15.83l-3.28-3.26a.77.77 0 01-.22-.48.81.81 0 01.22-.58L14 8.24a.76.76 0 011.06 0 .75.75 0 010 1.06l-2 2h8.15a.76.76 0 01.79.7z"/></symbol><symbol viewBox="0 0 24 24" id="map-pin" xmlns="http://www.w3.org/2000/svg"><path fill-rule="evenodd" clip-rule="evenodd" d="M12 2a8 8 0 00-8 8c0 3.098 2.016 6.104 4.226 8.437A29.419 29.419 0 0012 21.773a29.412 29.412 0 003.774-3.335C17.984 16.103 20 13.097 20 10a8 8 0 00-8-8zm0 21l-.555.832-.003-.002-.007-.005-.023-.015a28.518 28.518 0 01-1.441-1.074 31.428 31.428 0 01-3.197-2.923C4.484 17.396 2 13.902 2 10a10 10 0 0120 0c0 3.902-2.484 7.396-4.774 9.813a31.433 31.433 0 01-4.254 3.726 18.887 18.887 0 01-.384.27l-.023.016-.007.005-.002.001s-.001.001-.556-.831zm0 0l.555.832a1 1 0 01-1.11 0L12 23z"/><path fill-rule="evenodd" clip-rule="evenodd" d="M12 8a2 2 0 100 4 2 2 0 000-4zm-4 2a4 4 0 118 0 4 4 0 01-8 0z"/></symbol><symbol viewBox="0 0 16 16" id="monitor" xmlns="http://www.w3.org/2000/svg"><path fill-rule="evenodd" clip-rule="evenodd" d="M2.667 3a.333.333 0 00-.334.333V10c0 .184.15.333.334.333h10.666a.334.334 0 00.334-.333V3.333A.333.333 0 0013.333 3H2.667zm-2.334.333A2.333 2.333 0 012.667 1h10.666a2.333 2.333 0 012.334 2.333V10a2.333 2.333 0 01-2.334 2.333H2.667A2.333 2.333 0 01.333 10V3.333zm4 10.667a1 1 0 011-1h5.334a1 1 0 110 2H5.333a1 1 0 01-1-1z"/><path fill-rule="evenodd" clip-rule="evenodd" d="M8 10.333a1 1 0 011 1V14a1 1 0 11-2 0v-2.667a1 1 0 011-1z"/></symbol><symbol viewBox="0 0 20 20" id="monitor-2" xmlns="http://www.w3.org/2000/svg"><path fill-rule="evenodd" clip-rule="evenodd" d="M5.667 17.5a1 1 0 011-1h6.666a1 1 0 110 2H6.667a1 1 0 01-1-1z"/><path fill-rule="evenodd" clip-rule="evenodd" d="M10 13.167a1 1 0 011 1V17.5a1 1 0 11-2 0v-3.333a1 1 0 011-1z"/><path fill-rule="evenodd" clip-rule="evenodd" d="M.867 4.167A2.467 2.467 0 013.333 1.7h13.334a2.467 2.467 0 012.466 2.467V12.5a2.467 2.467 0 01-2.466 2.467H3.333A2.467 2.467 0 01.867 12.5V4.167zM3.333 3.3a.867.867 0 00-.866.867V12.5c0 .479.388.867.866.867h13.334a.867.867 0 00.866-.867V4.167a.867.867 0 00-.866-.867H3.333z"/></symbol><symbol viewBox="0 0 24 24" id="notification" xmlns="http://www.w3.org/2000/svg"><path fill-rule="evenodd" clip-rule="evenodd" d="M7.05 3.05A7 7 0 0119 8c0 3.353.717 5.435 1.378 6.646.332.608.655 1.007.88 1.244a3.042 3.042 0 00.306.284l.002.002A1 1 0 0121 18H3a1 1 0 01-.563-1.826 3.037 3.037 0 00.306-.283c.224-.238.547-.637.88-1.245C4.282 13.435 5 11.353 5 8a7 7 0 012.05-4.95zM2.444 16.17zM5.149 16h13.702a9.421 9.421 0 01-.229-.396C17.782 14.065 17 11.647 17 8A5 5 0 007 8c0 3.647-.783 6.065-1.622 7.604-.076.14-.153.271-.229.396zm4.619 4.135a1 1 0 011.367.363 1 1 0 001.73 0 1 1 0 011.73 1.004 3 3 0 01-5.19 0 1 1 0 01.363-1.367z"/></symbol><symbol viewBox="0 0 24 24" id="pencil" xmlns="http://www.w3.org/2000/svg"><path d="M21.78 5.92l-3.7-3.7a.75.75 0 00-1.06 0L2.23 17.01a.77.77 0 00-.22.52L2 21.25a.75.75 0 00.75.75l3.72-.01c.2 0 .39-.08.52-.22L21.78 6.98c.29-.29.29-.77 0-1.06zm-3.33 2.27c-.02-.02-.02-.05-.05-.07L15.88 5.6c-.02-.02-.05-.03-.07-.05l1.74-1.74 2.64 2.64-1.74 1.74z"/></symbol><symbol viewBox="0 0 12 12" id="phone" xmlns="http://www.w3.org/2000/svg"><path d="M1.563.48a1.406 1.406 0 00-.934.77c-.145.311-.168.58-.093 1.09.224 1.521.726 2.808 1.611 4.13 1.296 1.938 3.345 3.375 5.673 3.977.581.15 1.314.263 1.586.245a1.433 1.433 0 001.313-1.252c.026-.197.026-1.611 0-1.788-.046-.323-.169-.562-.419-.812-.261-.263-.434-.341-.948-.43a5.27 5.27 0 01-.922-.231 3.726 3.726 0 00-.448-.12 1.48 1.48 0 00-.988.238 3.913 3.913 0 00-.302.264c-.129.124-.223.199-.24.193-.054-.021-.463-.321-.671-.491a7.679 7.679 0 01-.883-.884c-.177-.216-.498-.661-.498-.689 0-.009.102-.121.226-.248.33-.337.46-.6.487-.98.015-.217-.012-.38-.114-.681a6.257 6.257 0 01-.238-.945c-.084-.505-.175-.71-.431-.968a1.393 1.393 0 00-.568-.364L3.61.45 2.66.446C1.774.442 1.7.444 1.563.48m1.964 1.007c.152.089.199.183.25.499.054.329.152.725.261 1.048.089.264.101.382.051.501-.018.044-.17.214-.389.435-.378.382-.439.468-.44.622 0 .143.079.306.354.723A8.452 8.452 0 005.03 6.93c.387.334 1.087.82 1.348.936.12.053.272.05.384-.007.051-.026.239-.195.448-.401.371-.366.444-.418.583-.418a2.3 2.3 0 01.379.1c.359.118.613.181 1.005.249.307.054.389.088.471.198.088.119.092.159.092.982v.784l-.055.108a.395.395 0 01-.329.234c-.269.022-1.219-.167-1.843-.368-1.029-.33-2.165-.971-3.023-1.706a8.943 8.943 0 01-2.601-3.866c-.235-.686-.451-1.793-.391-2.009a.444.444 0 01.326-.305c.047-.01.428-.016.846-.014l.76.003.097.057" fill-rule="evenodd"/></symbol><symbol viewBox="0 0 20 20" id="plus-circle" xmlns="http://www.w3.org/2000/svg"><path d="M10 1.667a8.333 8.333 0 100 16.666 8.333 8.333 0 000-16.666zm0 15a6.667 6.667 0 110-13.334 6.667 6.667 0 010 13.333zm3.333-7.5h-2.5v-2.5a.833.833 0 10-1.666 0v2.5h-2.5a.833.833 0 100 1.666h2.5v2.5a.833.833 0 001.666 0v-2.5h2.5a.833.833 0 100-1.667z"/></symbol><symbol viewBox="0 0 20 20" id="plus-square" xmlns="http://www.w3.org/2000/svg"><path d="M9.667 10.834v-.5H7.5a.333.333 0 010-.667h2.167V7.5a.333.333 0 01.666 0v2.167H12.5a.333.333 0 110 .667h-2.167V12.5a.333.333 0 11-.666 0v-1.666zm7 6.333h.5V2.834H2.833v14.333h13.834zM2.5 2.167h15a.333.333 0 01.333.333v15a.333.333 0 01-.333.334h-15a.333.333 0 01-.333-.334v-15a.333.333 0 01.333-.333z"/><path fill-rule="evenodd" clip-rule="evenodd" d="M1.91 1.911a.833.833 0 01.59-.244h15a.833.833 0 01.833.833v15a.834.834 0 01-.833.834h-15a.834.834 0 01-.833-.834v-15c0-.22.088-.433.244-.589zm14.757 1.423H3.333v13.333h13.334V3.334zM9.41 6.91a.833.833 0 011.178 0 .833.833 0 01.244.59v1.666H12.5a.833.833 0 110 1.667h-1.667V12.5a.834.834 0 01-1.666 0v-1.666H7.5a.834.834 0 01-.59-1.423.833.833 0 01.59-.244h1.667V7.5c0-.22.088-.433.244-.589z"/></symbol><symbol viewBox="0 0 16 17" id="save" xmlns="http://www.w3.org/2000/svg"><path d="M13.807 6.693l-4-4a.667.667 0 00-.214-.14.727.727 0 00-.26-.053H4a2 2 0 00-2 2v8a2 2 0 002 2h8a2 2 0 002-2V7.167a.666.666 0 00-.193-.474zM6 3.833h2.667v1.334H6V3.833zm4 9.334H6v-2a.666.666 0 01.667-.667h2.666a.666.666 0 01.667.667v2zm2.667-.667a.667.667 0 01-.667.667h-.667v-2a2 2 0 00-2-2H6.667a2 2 0 00-2 2v2H4a.667.667 0 01-.667-.667v-8A.667.667 0 014 3.833h.667v2a.667.667 0 00.666.667h4A.667.667 0 0010 5.833v-1.06l2.667 2.667v5.06z"/></symbol><symbol viewBox="0 0 17 16" id="search" xmlns="http://www.w3.org/2000/svg"><g clip-path="url(#bla)"><path d="M15.989 14.573l-3.808-3.96a6.44 6.44 0 001.515-4.153A6.467 6.467 0 007.236 0a6.467 6.467 0 00-6.46 6.46 6.467 6.467 0 006.46 6.46 6.39 6.39 0 003.701-1.169l3.837 3.99c.16.167.376.259.608.259a.844.844 0 00.607-1.427zM7.236 1.685a4.78 4.78 0 014.775 4.775 4.78 4.78 0 01-4.775 4.775A4.78 4.78 0 012.462 6.46a4.78 4.78 0 014.774-4.775z"/></g><defs><clipPath id="bla"><path transform="translate(.5)" d="M0 0h16v16H0z"/></clipPath></defs></symbol><symbol viewBox="0 0 18 18" id="send" xmlns="http://www.w3.org/2000/svg"><path fill-rule="evenodd" clip-rule="evenodd" d="M17.354.646a.5.5 0 010 .708l-8.8 8.8a.5.5 0 01-.707-.708l8.8-8.8a.5.5 0 01.707 0z"/><path fill-rule="evenodd" clip-rule="evenodd" d="M17.354.646a.5.5 0 01.118.52l-5.6 16a.5.5 0 01-.929.037L7.821 10.18.797 7.057a.5.5 0 01.038-.929l16-5.6a.5.5 0 01.518.118zM2.356 6.656l6.047 2.687a.5.5 0 01.254.254l2.688 6.048 4.84-13.83-13.83 4.84z"/></symbol><symbol viewBox="0 0 16 16" id="send-2" xmlns="http://www.w3.org/2000/svg"><g clip-path="url(#bna)" fill-rule="evenodd" clip-rule="evenodd"><path d="M15.374.626a1 1 0 010 1.414L8.04 9.374a1 1 0 11-1.414-1.415L13.96.626a1 1 0 011.414 0z"/><path d="M15.374.626a1 1 0 01.236 1.038l-4.666 13.333a1 1 0 01-1.858.076l-2.51-5.649-5.649-2.51a1 1 0 01.076-1.858L14.336.39a1 1 0 011.038.237zM4.044 6.111L7.74 7.753a1 1 0 01.508.507l1.642 3.696 3.148-8.993-8.993 3.148z"/></g><defs><clipPath id="bna"><path d="M0 0h16v16H0z"/></clipPath></defs></symbol><symbol viewBox="0 0 16 16" id="sort" xmlns="http://www.w3.org/2000/svg"><path fill-rule="evenodd" clip-rule="evenodd" d="M8.338 2.938l1.968 1.968a.797.797 0 101.128-1.128L8.898 1.234a.797.797 0 00-1.128 0L5.234 3.778a.797.797 0 101.128 1.128l1.976-1.968zm0 9.872L6.37 10.842a.797.797 0 10-1.128 1.128l2.536 2.544a.797.797 0 001.128 0l2.536-2.536a.797.797 0 10-1.128-1.128l-1.976 1.96z"/></symbol><symbol viewBox="0 0 16 16" id="sort-arrow-down" xmlns="http://www.w3.org/2000/svg"><path d="M3.435 9.43l-.232.24V3.6a.8.8 0 00-1.6 0v6.07l-.232-.24a.803.803 0 00-1.136 1.136l1.6 1.6a.8.8 0 00.264.167.752.752 0 00.608 0 .8.8 0 00.264-.168l1.6-1.6A.803.803 0 103.434 9.43zm3.767-5.031H15.2a.8.8 0 000-1.6H7.202a.8.8 0 100 1.6zm7.998 2.4H7.202a.8.8 0 000 1.6H15.2a.8.8 0 000-1.6zm0 3.999H7.202a.8.8 0 100 1.6H15.2a.8.8 0 000-1.6z"/></symbol><symbol viewBox="0 0 22 22" id="success" xmlns="http://www.w3.org/2000/svg"><path fill-rule="evenodd" clip-rule="evenodd" d="M14.663 2.78A9 9 0 1020 11.004v-.92a1 1 0 012 0v.92a11.003 11.003 0 01-7.881 10.544A11 11 0 1115.477.952a1 1 0 11-.814 1.827z"/><path fill-rule="evenodd" clip-rule="evenodd" d="M21.707 2.298a1 1 0 010 1.414l-10 10.01a1 1 0 01-1.414 0l-3-3A1 1 0 118.707 9.31L11 11.6l9.293-9.302a1 1 0 011.414 0z"/></symbol><symbol viewBox="0 0 20 20" id="time-fill" xmlns="http://www.w3.org/2000/svg"><path d="M10 18.333a8.333 8.333 0 110-16.667 8.333 8.333 0 010 16.667zM10.834 10V5.833H9.167v5.833h5V10h-3.333z"/></symbol><symbol viewBox="0 0 16 16" id="trash" xmlns="http://www.w3.org/2000/svg"><path fill-rule="evenodd" clip-rule="evenodd" d="M1.4 4a.6.6 0 01.6-.6h12a.6.6 0 110 1.2H2a.6.6 0 01-.6-.6z"/><path fill-rule="evenodd" clip-rule="evenodd" d="M6.667 1.933a.733.733 0 00-.734.734V3.4h4.134v-.733a.733.733 0 00-.734-.734H6.667zm4.6 1.467v-.733A1.933 1.933 0 009.333.733H6.667a1.933 1.933 0 00-1.934 1.934V3.4h-1.4a.6.6 0 00-.6.6v9.333a1.933 1.933 0 001.934 1.934h6.666a1.933 1.933 0 001.934-1.934V4a.6.6 0 00-.6-.6h-1.4zM3.933 4.6v8.733a.733.733 0 00.734.734h6.666a.733.733 0 00.734-.734V4.6H3.933z"/><path fill-rule="evenodd" clip-rule="evenodd" d="M6.667 6.733a.6.6 0 01.6.6v4a.6.6 0 01-1.2 0v-4a.6.6 0 01.6-.6zm2.666 0a.6.6 0 01.6.6v4a.6.6 0 01-1.2 0v-4a.6.6 0 01.6-.6z"/></symbol><symbol viewBox="0 0 66 65" id="trash-lg" xmlns="http://www.w3.org/2000/svg"><path d="M26.18 4.082c-.333.053-1.073.327-1.646.609-1.723.848-2.994 2.343-3.583 4.219-.149.476-.201 1.16-.243 3.201l-.053 2.596-6.34.079c-6.986.087-6.705.055-7.009.784a1.774 1.774 0 000 1.421c.273.654.547.719 3.026.719h2.202l.034 18.837c.033 17.756.046 18.876.232 19.492.741 2.449 2.757 4.33 5.195 4.846 1.137.241 28.873.241 30.01 0 2.438-.516 4.454-2.397 5.195-4.846.186-.616.199-1.736.232-19.492l.034-18.837h2.202c2.479 0 2.753-.065 3.026-.719a1.774 1.774 0 000-1.421c-.304-.729-.023-.697-7.009-.784l-6.34-.079-.053-2.596c-.042-2.041-.094-2.725-.243-3.201-.59-1.877-1.861-3.374-3.583-4.217-.661-.324-1.302-.551-1.756-.621-.879-.136-12.67-.127-13.53.01M40.064 7.28c.78.365 1.572 1.163 1.947 1.96.275.585.285.686.319 3.053l.035 2.447h-18.73l.035-2.447c.032-2.242.055-2.492.275-2.968.482-1.042 1.239-1.758 2.304-2.177.509-.2.856-.209 6.861-.187l6.325.024.629.295m10.402 28.91c.032 19.228.04 18.87-.429 19.814-.295.596-1.172 1.416-1.857 1.737l-.605.284h-29.15l-.605-.284c-.647-.303-1.548-1.124-1.827-1.664-.497-.962-.481-.281-.482-19.786 0-10.139.032-18.467.073-18.508.04-.041 7.898-.061 17.462-.046l17.389.028.031 18.425m-23.702-7.699c-.133.053-.331.234-.44.401-.187.284-.201.808-.233 8.393-.019 4.45-.003 8.403.037 8.787.096.933.426 1.318 1.209 1.409.379.044.681.009.966-.11.774-.323.744.084.711-9.651l-.029-8.698-.359-.321c-.312-.278-.444-.32-.99-.314-.347.004-.739.051-.872.104m10.623.198l-.372.333-.028 8.781c-.028 8.553-.023 8.791.187 9.134.266.434.877.642 1.575.538.609-.092.956-.438 1.08-1.077.12-.621.119-16.39-.001-17.012-.141-.731-.414-.936-1.313-.986-.713-.041-.776-.025-1.128.289" fill-rule="evenodd"/></symbol><symbol viewBox="0 0 20 20" id="twitch-plus" xmlns="http://www.w3.org/2000/svg"><path d="M2.317.8c-.35.055-.543.199-.641.481-.056.16-.059.549-.059 7.052 0 6.503.003 6.893.059 7.053.071.203.22.357.424.436.135.053.328.06 1.906.071l1.756.011.011 1.306.01 1.307.094.19c.152.311.501.56.784.56.303 0 .358-.046 2.072-1.754l1.617-1.611 2-.009 2-.01.183-.09c.151-.074.501-.409 1.954-1.867 1.554-1.558 1.779-1.796 1.834-1.943.06-.16.062-.36.062-5.333 0-5.763.016-5.387-.231-5.633-.254-.253.452-.232-8.035-.238C5.918.777 2.408.786 2.317.8M16.6 6.942v4.375l-1.392 1.39-1.391 1.391-2 .009-2 .01-.167.076c-.129.06-.382.291-1.121 1.029l-.954.952-.017-.712c-.02-.809-.043-.915-.241-1.112-.231-.232-.199-.228-2.159-.242L3.4 14.096V2.567h13.2v4.375M9.783 5.024c-.203.026-.408.114-.509.219-.196.202-.217.315-.233 1.262l-.014.854-.855.016c-.947.016-1.062.038-1.263.232-.292.284-.292 1.036 0 1.319.201.195.316.216 1.263.233l.855.015.014.921c.012.767.024.947.071 1.072.121.316.399.477.821.474.309-.002.492-.065.651-.224.209-.209.223-.284.24-1.322l.016-.922.922-.015c1.038-.017 1.111-.03 1.322-.241.16-.159.222-.342.222-.65 0-.309-.062-.491-.222-.651-.211-.21-.284-.224-1.322-.241l-.921-.014-.017-.856c-.018-.966-.034-1.049-.241-1.257-.169-.169-.501-.262-.8-.224" fill-rule="evenodd"/></symbol><symbol viewBox="0 0 24 24" id="upload" xmlns="http://www.w3.org/2000/svg"><path d="M15.41 6.19a.76.76 0 01-1.06 0l-1.6-1.61v6.7a.75.75 0 11-1.5 0V4.57l-1.6 1.61a.75.75 0 11-1.06-1.06l2.88-2.9A.74.74 0 0112 2a.76.76 0 01.53.22l2.89 2.9a.76.76 0 01-.01 1.07z"/><path d="M18.4 7.29h-4.65v4a1.75 1.75 0 11-3.5 0v-4H5.61A3.71 3.71 0 002 11.09v7.1A3.72 3.72 0 005.61 22H18.4a3.72 3.72 0 003.6-3.81v-7.1a3.71 3.71 0 00-3.6-3.8zM15 19.36H8.85a.75.75 0 110-1.5H15a.75.75 0 110 1.5zm.06-2.5H8.92a.75.75 0 110-1.5h6.16a.75.75 0 110 1.5h-.02z"/></symbol><symbol viewBox="0 0 22 22" id="warning" xmlns="http://www.w3.org/2000/svg"><path fill-rule="evenodd" clip-rule="evenodd" d="M11 2a9 9 0 100 18 9 9 0 000-18zM0 11C0 4.925 4.925 0 11 0s11 4.925 11 11-4.925 11-11 11S0 17.075 0 11z"/><path fill-rule="evenodd" clip-rule="evenodd" d="M11 10a1 1 0 011 1v4a1 1 0 11-2 0v-4a1 1 0 011-1zm-1-3a1 1 0 011-1h.01a1 1 0 110 2H11a1 1 0 01-1-1z"/></symbol><symbol viewBox="0 0 24 24" id="x-mark-circle" xmlns="http://www.w3.org/2000/svg"><path d="M12 2C6.49 2 2 6.49 2 12s4.49 10 10 10 10-4.49 10-10S17.51 2 12 2zm2.42 11.39c.3.3.29.77 0 1.06-.15.14-.34.22-.53.22s-.39-.08-.53-.23L12 13.07l-1.35 1.37c-.15.15-.34.23-.54.23-.19 0-.38-.08-.52-.22-.3-.29-.3-.76-.01-1.06L10.95 12l-1.37-1.39c-.29-.3-.29-.77.01-1.06.29-.29.77-.29 1.06.01L12 10.93l1.36-1.37a.745.745 0 111.06 1.05L13.05 12l1.37 1.39z"/></symbol></svg>